<?xml version="1.0" standalone="no"?>
<!DOCTYPE svg PUBLIC "-//W3C//DTD SVG 20010904//EN"
 "http://www.w3.org/TR/2001/REC-SVG-20010904/DTD/svg10.dtd">
<svg version="1.0" xmlns="http://www.w3.org/2000/svg"
 width="552.000000pt" height="470.000000pt" viewBox="0 0 552.000000 470.000000"
 preserveAspectRatio="xMidYMid meet">
<metadata>
Created by potrace 1.16, written by Peter Selinger 2001-2019
</metadata>
<g transform="translate(0.000000,470.000000) scale(0.100000,-0.100000)"
fill="#222020" stroke="none">
<path d="M4244 4590 c-71 -10 -140 -29 -204 -58 -129 -57 -293 -213 -396 -377
-203 -321 -284 -668 -299 -1280 -7 -306 -13 -412 -25 -490 -5 -33 -12 -87 -16
-120 -7 -69 -56 -324 -77 -405 -25 -92 -59 -204 -67 -215 -4 -5 -13 -26 -20
-45 -96 -256 -198 -392 -375 -501 -43 -27 -84 -49 -91 -49 -6 0 -17 -6 -24
-14 -18 -23 -128 -55 -210 -62 -292 -24 -483 156 -761 716 -44 88 -77 167
-125 295 -40 107 -69 174 -123 283 -25 53 -163 179 -208 191 -21 6 -43 11 -49
11 -7 0 -14 12 -17 28 -23 116 -60 202 -88 202 -3 0 -24 -52 -45 -116 -23 -70
-45 -118 -54 -121 -53 -17 -146 -62 -219 -105 -107 -65 -320 -224 -389 -291
-69 -67 -117 -136 -104 -149 6 -6 22 10 46 46 20 31 53 69 74 86 194 157 301
234 387 281 22 12 51 29 65 39 42 28 119 52 145 46 18 -5 25 -2 25 9 0 21 41
29 114 22 100 -10 146 -31 214 -100 52 -53 70 -81 120 -192 33 -71 71 -164 85
-205 50 -145 101 -255 222 -475 100 -182 195 -316 279 -392 94 -87 211 -131
348 -134 178 -3 326 56 505 203 217 178 386 609 447 1138 26 227 29 280 41
720 6 191 8 223 26 350 12 84 11 76 39 218 83 415 321 783 597 921 91 45 171
62 318 66 213 6 355 -26 490 -110 22 -13 58 -34 80 -46 52 -28 160 -116 217
-177 37 -39 93 -88 156 -135 6 -5 12 -6 12 -1 0 22 -273 271 -360 329 -131 86
-163 102 -282 136 -84 25 -126 31 -233 34 -71 2 -158 0 -191 -5z m-3138 -2027
c9 -32 21 -64 26 -70 8 -10 -3 -13 -50 -13 l-60 0 19 62 c16 51 31 77 46 78 1
0 10 -26 19 -57z"/>
<path d="M2195 4369 c-62 -36 -125 -125 -125 -176 0 -18 5 -33 10 -33 6 0 10
9 10 20 0 67 98 170 161 170 31 0 82 -59 98 -113 8 -28 19 -47 28 -47 10 0 12
6 7 23 -16 52 -53 123 -72 140 -25 23 -90 32 -117 16z"/>
<path d="M1925 4324 c-65 -34 -130 -87 -167 -138 -25 -35 -29 -48 -25 -85 6
-58 48 -100 105 -108 54 -7 55 10 3 26 -45 13 -83 58 -83 97 0 46 91 146 172
188 60 31 89 33 123 6 14 -11 28 -20 31 -20 13 0 5 28 -12 43 -27 25 -89 21
-147 -9z"/>
<path d="M2564 4261 c-46 -34 -89 -79 -97 -103 -10 -29 2 -22 70 42 81 76 112
80 167 20 42 -47 51 -75 42 -141 -4 -32 -3 -49 4 -49 14 0 19 15 24 75 5 62
-10 99 -60 148 -49 48 -93 50 -150 8z"/>
<path d="M2873 4033 c-21 -8 -15 -25 6 -18 23 7 76 -14 109 -43 49 -44 35
-129 -38 -226 -44 -58 -89 -86 -138 -86 -17 0 -34 -4 -37 -10 -4 -6 13 -10 43
-10 73 0 141 54 197 155 38 69 44 141 15 178 -38 48 -115 78 -157 60z"/>
<path d="M1693 3944 c-47 -24 -90 -112 -77 -161 12 -49 66 -91 127 -99 56 -8
66 10 11 20 -41 8 -114 77 -114 109 0 30 45 101 74 116 15 8 39 12 60 8 36 -6
50 6 20 17 -27 10 -68 6 -101 -10z"/>
<path d="M1782 3665 c-36 -16 -48 -39 -51 -101 -2 -50 28 -87 87 -105 59 -17
109 -4 154 41 36 36 48 60 30 60 -5 0 -19 -12 -33 -26 -80 -86 -207 -59 -212
44 -1 42 22 82 50 82 7 0 13 5 13 10 0 12 2 12 -38 -5z"/>
<path d="M2866 3587 c5 -37 3 -47 -16 -65 -32 -29 -112 -38 -169 -18 -46 17
-58 16 -46 -4 20 -32 149 -43 209 -18 55 22 81 137 33 146 -14 3 -16 -3 -11
-41z"/>
<path d="M2526 3558 c-2 -7 -7 -25 -10 -40 -17 -76 -211 -83 -296 -11 -17 14
-33 23 -36 20 -11 -11 28 -56 64 -73 47 -23 181 -31 223 -14 38 16 79 65 79
95 0 27 -18 44 -24 23z"/>
<path d="M1512 3276 c-58 -55 -49 -72 14 -23 25 20 51 38 57 40 12 4 1 27 -14
27 -6 0 -31 -20 -57 -44z"/>
<path d="M1575 3265 c-45 -21 -67 -42 -63 -59 2 -14 8 -13 38 8 20 13 44 25
55 27 21 4 28 30 10 35 -5 2 -23 -3 -40 -11z"/>
<path d="M1302 3131 c-74 -71 -101 -103 -96 -115 8 -20 11 -20 130 4 53 11
106 18 116 14 10 -3 18 0 18 6 0 7 7 10 15 7 8 -4 17 -2 20 3 7 11 -14 54 -22
46 -8 -8 -73 65 -73 81 0 6 5 15 10 18 14 9 12 35 -2 35 -7 0 -59 -44 -116
-99z m73 -58 c12 -7 -2 -13 -51 -22 -36 -6 -68 -10 -71 -7 -2 2 17 20 43 41
45 34 49 35 55 16 4 -10 15 -23 24 -28z"/>
<path d="M1558 3193 c-35 -24 -48 -43 -30 -43 19 0 102 46 102 57 0 20 -32 14
-72 -14z"/>
<path d="M1536 3132 c-9 -2 -15 -9 -13 -15 5 -16 109 -16 114 -1 4 12 -66 22
-101 16z"/>
<path d="M1016 2989 c-20 -49 -7 -86 37 -107 23 -11 26 -18 21 -40 -9 -39 -15
-42 -56 -28 -35 12 -71 6 -55 -10 4 -4 29 -15 55 -24 31 -11 48 -23 51 -36 2
-10 8 -25 14 -32 9 -11 13 -11 24 4 9 12 10 21 2 30 -8 9 -2 10 28 3 53 -12
63 -11 63 6 0 8 -9 15 -20 15 -11 0 -36 6 -54 14 -29 12 -32 17 -28 45 3 20
15 39 34 53 39 27 62 81 48 108 -15 29 -43 40 -98 40 -49 0 -50 -1 -66 -41z
m124 -4 c18 -22 5 -60 -26 -74 -22 -10 -31 -9 -50 4 -31 20 -30 39 2 64 31 25
57 27 74 6z"/>
<path d="M1325 1809 c-4 -16 9 -60 40 -134 25 -60 71 -171 101 -245 62 -152
123 -272 142 -278 19 -6 15 52 -5 71 -26 23 -94 164 -126 258 -9 25 -25 65
-36 90 -47 106 -68 157 -81 199 -17 58 -27 69 -35 39z"/>
<path d="M1641 1201 c2 -83 0 -153 -3 -156 -3 -3 -37 28 -74 70 -78 87 -101
104 -110 81 -7 -19 198 -230 218 -223 7 2 11 11 9 18 -2 8 -5 91 -8 184 -3
143 -6 171 -19 173 -14 3 -15 -15 -13 -147z"/>
<path d="M530 1297 c0 -9 14 -17 39 -21 l38 -6 -9 -57 c-5 -32 -13 -71 -18
-86 -10 -31 -3 -60 14 -54 14 4 35 86 38 147 3 49 7 51 68 38 36 -7 62 5 45
21 -6 5 -30 12 -55 15 -161 19 -160 19 -160 3z"/>
<path d="M814 1277 c-30 -10 -32 -15 -43 -78 -16 -98 -15 -121 7 -117 11 2 19
15 22 41 l5 37 45 -46 c25 -25 53 -50 63 -55 31 -17 20 25 -13 49 -35 27 -37
35 -10 69 25 33 25 54 -1 87 -22 28 -27 29 -75 13z m62 -38 c11 -19 -17 -59
-43 -59 -27 0 -29 16 -7 48 16 24 39 29 50 11z"/>
<path d="M1052 1240 c-26 -35 -48 -39 -57 -10 -3 11 -13 20 -21 20 -11 0 -13
-7 -8 -27 9 -39 13 -43 35 -43 15 0 19 -7 19 -34 0 -52 12 -97 24 -93 7 2 10
28 8 71 -3 59 -1 71 18 91 16 17 19 28 13 39 -8 14 -12 12 -31 -14z"/>
<path d="M830 825 c0 -11 11 -15 38 -15 l38 0 -9 -86 c-5 -47 -6 -92 -3 -100
13 -33 24 0 31 86 l7 90 52 -6 c75 -10 78 -10 83 4 3 8 -5 12 -24 12 -15 0
-50 7 -77 15 -66 20 -136 20 -136 0z"/>
<path d="M1122 804 c-2 -20 -12 -56 -22 -80 -22 -47 -25 -71 -11 -93 12 -19
27 -7 34 29 5 25 11 30 35 30 15 0 37 7 48 15 30 23 34 18 34 -39 0 -30 5 -58
11 -61 6 -4 12 -5 13 -4 2 2 6 50 9 107 5 86 4 102 -9 102 -8 0 -19 -11 -24
-25 -11 -28 -66 -66 -86 -58 -9 3 -11 20 -7 59 5 43 3 54 -9 54 -9 0 -15 -13
-16 -36z"/>
<path d="M1379 808 c-4 -16 -10 -66 -15 -132 -6 -65 -5 -78 7 -74 8 3 14 13
15 24 1 10 4 46 9 79 11 92 11 98 -2 102 -7 3 -13 3 -14 1z"/>
<path d="M1537 803 c-11 -10 -8 -74 5 -110 15 -41 9 -47 -36 -35 -48 14 -54
-1 -10 -27 71 -42 97 -15 74 80 -14 56 -1 89 19 50 13 -23 31 -28 31 -8 0 31
-64 70 -83 50z"/>
<path d="M1368 410 c-1 -5 1 -48 6 -95 11 -98 22 -106 62 -45 l27 40 18 -30
c10 -16 24 -30 31 -30 7 0 26 20 41 45 16 24 42 56 58 69 31 27 38 46 15 46
-8 0 -37 -26 -64 -57 -50 -57 -51 -57 -57 -31 -4 17 -1 35 11 52 19 30 14 42
-13 31 -10 -5 -27 -7 -37 -6 -15 2 -18 -2 -13 -20 4 -14 -1 -33 -14 -51 -26
-36 -39 -36 -39 1 0 63 -20 115 -32 81z"/>
<path d="M1779 400 c-18 -10 -77 -133 -81 -169 -4 -35 18 -36 30 -1 10 28 14
30 66 30 46 0 56 -3 61 -20 3 -11 4 -24 1 -29 -10 -15 22 -21 34 -6 8 10 4 29
-15 77 -32 81 -73 132 -96 118z m51 -99 c0 -6 -12 -8 -32 -4 -43 8 -42 7 -23
37 l17 26 19 -24 c10 -13 19 -29 19 -35z"/>
<path d="M2027 403 c-2 -5 -5 -25 -6 -46 -3 -42 12 -67 40 -67 15 0 18 -9 21
-52 2 -38 7 -53 17 -53 11 0 14 15 12 67 -2 62 0 68 23 83 14 10 26 21 26 26
0 16 -31 10 -57 -11 -14 -11 -32 -20 -39 -20 -13 0 -19 32 -15 68 2 13 -15 17
-22 5z"/>
</g>
</svg>
