<?xml version="1.0" encoding="UTF-8" standalone="no"?>
<!-- Created with Inkscape (http://www.inkscape.org/) -->

<svg
   xmlns:dc="http://purl.org/dc/elements/1.1/"
   xmlns:cc="http://creativecommons.org/ns#"
   xmlns:rdf="http://www.w3.org/1999/02/22-rdf-syntax-ns#"
   xmlns:svg="http://www.w3.org/2000/svg"
   xmlns="http://www.w3.org/2000/svg"
   xmlns:sodipodi="http://sodipodi.sourceforge.net/DTD/sodipodi-0.dtd"
   xmlns:inkscape="http://www.inkscape.org/namespaces/inkscape"
   width="7.4083333mm"
   height="7.4081922mm"
   viewBox="0 0 7.4083333 7.4081922"
   version="1.1"
   id="svg8"
   inkscape:version="0.92.4 (5da689c313, 2019-01-14)"
   sodipodi:docname="drawing.svg">
  <defs
     id="defs2">
    <linearGradient
       id="linearGradient-1"
       y2="29.999754"
       x2="15.999848"
       y1="2.0000191"
       x1="15.999848"
       gradientTransform="matrix(1.0000095,0,0,0.99999048,156.42857,-22.857143)"
       gradientUnits="userSpaceOnUse">
      <stop
         id="stop4522"
         offset="0%"
         stop-color="#93D759" />
      <stop
         id="stop4524"
         offset="100%"
         stop-color="#78B34A" />
    </linearGradient>
  </defs>
  <sodipodi:namedview
     id="base"
     pagecolor="#ffffff"
     bordercolor="#666666"
     borderopacity="1.0"
     inkscape:pageopacity="0.0"
     inkscape:pageshadow="2"
     inkscape:zoom="2.8"
     inkscape:cx="93.33682"
     inkscape:cy="26.103025"
     inkscape:document-units="mm"
     inkscape:current-layer="Page-1"
     showgrid="false"
     inkscape:window-width="1920"
     inkscape:window-height="1147"
     inkscape:window-x="-8"
     inkscape:window-y="-8"
     inkscape:window-maximized="1"
     fit-margin-top="0"
     fit-margin-left="0"
     fit-margin-right="0"
     fit-margin-bottom="0" />
  <metadata
     id="metadata5">
    <rdf:RDF>
      <cc:Work
         rdf:about="">
        <dc:format>image/svg+xml</dc:format>
        <dc:type
           rdf:resource="http://purl.org/dc/dcmitype/StillImage" />
        <dc:title></dc:title>
      </cc:Work>
    </rdf:RDF>
  </metadata>
  <g
     inkscape:label="Vrstva 1"
     inkscape:groupmode="layer"
     id="layer1"
     transform="translate(360.51369,-71.801786)">
    <g
       id="Page-1"
       transform="matrix(0.26458333,0,0,0.26458333,-402.43125,77.320238)"
       style="fill:none;fill-rule:evenodd;stroke:none;stroke-width:1">
      <circle
         style="fill:#ffffff"
         id="Oval-2"
         cx="16"
         cy="16"
         r="16" />
      <path
         style="fill:url(#linearGradient-1)"
         inkscape:connector-curvature="0"
         d="m 158.42857,-6.8572762 c 0,3.276916 1.12918,6.28833102 3.01515,8.673578 v 0 l 7.16454,-7.164539 c -0.185,-0.46756 -0.28976,-0.975904 -0.28976,-1.509039 v 0 c 0,-2.27009 1.84012,-4.1102068 4.10994,-4.1102068 v 0 c 2.27009,0 4.11021,1.8401168 4.11021,4.1102068 v 0 c 0,0.533135 -0.10476,1.041479 -0.28976,1.509039 v 0 l 7.16427,7.164539 c 1.88623,-2.38524698 3.01541,-5.396662 3.01541,-8.673578 v 0 c 0,-7.7317948 -6.26807,-13.9998668 -14.00013,-13.9998668 v 0 c -7.73179,0 -13.99987,6.268072 -13.99987,13.9998668 m 11.33153,3.118042 -6.99954,6.9998 c 2.51347,2.402574 5.91674,3.881758 9.66788,3.881758 v 0 c 3.75141,0 7.15468,-1.479184 9.66814,-3.881758 v 0 l -6.9998,-6.9998 c -0.0738,0.06318 -2.66834,-4.178715 -2.66834,-4.178715 v 0 c 0,0 -2.5945,4.241891 -2.66834,4.178715"
         id="Fill-4" />
    </g>
  </g>
</svg>
