<svg xmlns="http://www.w3.org/2000/svg" version="1.0" width="2340" height="1653.33" viewBox="0 0 1755 1240"><path d="M168.6 197.2c-1.4 2.4-2.9 6.3-3.5 8.7-.5 2.4-1.4 4.8-2 5.4-1.7 1.7-1.4 12.6.4 13.3.8.4 1.5 1.3 1.5 2.1 0 .7 2.4 2.5 5.3 3.8 6.5 3.1 13.2 3.3 16.7.5 1.4-1.1 3.4-2 4.6-2 2.4 0 5.4-2.9 5.4-5.3 0-.9-.8-1.7-1.7-1.7-1.9 0-7.9 1.8-10.5 3.1-2.4 1.2-8.5 1.1-9.3-.1-.3-.6-1.5-1-2.5-1-3.1 0-3.8-5.3-2.3-16 .8-5.1 1-5.5 4.1-6.1 2.3-.5 3.7-.2 4.7.8.8.8 2.5 1.3 3.7 1.1 2.2-.3 2.5-1.5 1.9-7.3-.2-1.7-5.3-3.5-9.8-3.5-3.9 0-4.4.3-6.7 4.2zM223.5 196.1c-2.4 2.2-3.5 4-3.5 5.9 0 1.9-.6 2.9-2 3.3-1.8.5-2 1.4-2 7.7 0 6.3.3 7.5 2.8 10.6 1.5 1.8 3.3 3.4 4 3.4.6 0 1.2.4 1.2 1s2.8 1 6.5 1c5.2 0 6.5-.3 6.5-1.6 0-.8.6-2.2 1.4-3 2.2-2.1 3-14.9 1.4-21.4-1.2-5.1-1.7-5.7-5.8-7.7-5.9-2.9-6.3-2.9-10.5.8zm10.2 8.6c1.8 4.4 1.3 12.7-.9 14.9-.9 1-2.4 1.2-4.5.8-3.8-.7-5.2-3.3-2.3-4.1 2.3-.6 2.7-3.1.5-3.9-2.3-.9-2.1-10.1.3-10.7 4.2-1.1 5.3-.7 6.9 3zM268 193.9c0 .5-.9 1.1-2 1.4-1.4.4-2 1.4-2 3.4-.1 1.5-.9 5.3-2 8.3-1.1 3.1-1.9 8.2-2 11.7v6.3h3c3.9 0 5.5-2.6 7.1-11.2 1.1-5.9 1.4-6.5 2.5-5 .8.9 1.4 2.7 1.4 3.9 0 1.3.9 2.8 2 3.5 1.1.7 2 1.8 2 2.4 0 2.4 5.6 6.4 9.2 6.4 3.5 0 3.6-.1 6.2-7.3 1.4-3.9 2.6-8.1 2.6-9.3 0-1.1 1.9-3.9 4.1-6.2 2.6-2.6 3.9-4.7 3.6-5.7-.8-2-7-2-8.7 0-2.3 2.8-8 14.5-8 16.6 0 3.7-3.1 1.6-6.4-4.3-1.7-3.2-3.7-6.3-4.4-7a5.1 5.1 0 01-1.2-3.3c-.1-2.9-2.4-5.5-4.9-5.5-1.1 0-2.1.4-2.1.9zM322.2 194.6c-.6 1.1-.6 2.7 0 4.6.8 2.4 1.6 2.8 4.5 2.8h3.6l-.8 5.2c-1.6 11.4-1.5 16.9.3 19.4 3.8 5.2 6.9.9 5.6-7.7-.4-2.1-.3-6.8.1-10.4l.7-6.5h7.4c5.9 0 7.6-.3 8.1-1.6 1-2.6-1.2-3.7-10.9-5.1-17.9-2.7-17.5-2.6-18.6-.7zM375.1 196.9c-1.6 1.2-2.2 2.4-1.8 3.5.7 1.7.7 1.7 11.7 2.1 8.7.3 16.1 1.4 17.5 2.5.9.7 6.9 1.4 10.3 1.1 2.4-.2 1.1-2.2-1.8-2.8-1.7-.3-3.3-1-3.6-1.4-.3-.5-1.4-.9-2.4-.9-1.1 0-3.4-.9-5.2-2-1.8-1.1-4.7-2-6.5-2-1.7 0-3.5-.5-3.8-1-1.1-1.8-11.8-1.1-14.4.9zM471.5 200.9c-4.1 1.5-5 2.2-5 4.2 0 1.7.6 2.5 2.3 2.7 1.3.2 2.8-.1 3.5-.6 1.6-1.2 9.4-1.5 10.1-.4.3.5.1 6-.5 12.3-1 12.2-.4 15.3 3.2 16.2 3.5.9 5.1-2 4.3-7.7-.8-5.7-.8-17.2.1-18.7.9-1.4 4.3-1.1 11.4 1.1 7.1 2.1 8.1 2 8.1-1.4 0-3-3.9-5.6-8.4-5.6-1.9 0-3.7-.4-4-.9-.3-.4-4-1.1-8.3-1.4-4.3-.3-8.7-.8-9.8-1.1-1.1-.2-4.2.4-7 1.3zM366.7 201.7c-.4.3-.7 1.5-.7 2.5s-.9 3.6-2 5.8c-1.1 2.2-2 5.1-2 6.5 0 1.5-.7 3.3-1.5 4.1-2.6 2.7-1.8 6.8 1.8 9.5 4.5 3.4 10.7 4.8 21.4 4.9 8.4 0 9.2-.2 9.8-2 1.2-3.9-1.1-5-10.6-5-4.9 0-9.7-.4-10.7-.9-.9-.5-2.5-1.2-3.4-1.5-2.1-.6-2.5-5.5-.6-7.4.8-.8 1.7-.6 3.6.8 2 1.6 4.1 2 10.9 2 8.1 0 8.4-.1 9.4-2.7.5-1.4.8-3.4.7-4.2-.4-2.2-5.6-2.6-7.7-.7-1.8 1.7-7.6 1.3-8.7-.5-.3-.5-1.5-.9-2.8-.9-3.3 0-3.6-.7-2.1-5.5.7-2.4 1-4.6.7-4.9-.8-.8-4.7-.7-5.5.1zM886.9 202.3c-1.4.7-4 2.4-5.9 3.9-3.3 2.6-3.4 2.8-4.7 15-.7 6.8-1.1 13.3-.8 14.5.7 3.2 9.5 7.4 16.5 8 5.2.5 5.9.3 7.4-1.8.9-1.3 1.6-3.2 1.6-4.2 0-1.8-4.2-10.2-6.1-12.2-1.6-1.7-1-8 1-9.7 2.5-2.1 3.8-10.6 1.9-12.5-2-1.9-7.8-2.5-10.9-1zm4.1 7.6c0 .5-1.3 2.3-3 4.1-4.4 4.7-4.1 9.1 1 15.5 2.2 2.7 4 5.6 4 6.2 0 1.5-2.6 1.7-3.5.3-.3-.6-1.7-1-3.1-1H884v-11.1c0-10.2.2-11.3 2.2-13 2.2-2 4.8-2.5 4.8-1zM420.5 203.9c-.4.9.2 2.2 1.2 3.1 1.1.8 2.7 2.9 3.8 4.7 1.7 2.9 1.7 3.2.2 4.8-1 .9-1.7 2.1-1.7 2.6s-.7.9-1.6.9c-.9 0-1.8.9-2.1 2-.3 1-1.4 2.2-2.5 2.6-1.6.5-1.9 1.3-1.6 5.2.3 5.4 3.1 7.1 4.8 3 1-2.6 5.4-7 8.7-8.7 2.1-1 2.4-.8 3.8 2.5.8 2 1.5 5.6 1.5 7.9 0 3.8.3 4.4 3 5.5 7 2.9 8-2.9 2.5-14.1-1.9-4-3.5-7.6-3.5-8 0-.4 2.5-1.9 5.6-3.4 4.5-2.1 5.5-3 5.2-4.8-.3-1.9-.9-2.2-5-2.1-3.1 0-5.4.6-6.8 1.9-1.9 1.8-2 1.7-4.2-1-1.3-1.6-2.7-3.4-3.3-4.1-1.6-1.9-7.3-2.3-8-.5zM931 206.1c-4.6 1.9-6 3.9-6 8.9 0 4 .4 5 2.5 6.4 3.6 2.3 3.8 2.1 3.1-3.3-.7-5.1 0-6.1 4.4-6.1 2.1 0 2.9 3.9 2.2 11-.4 4.2-.8 4.9-3.8 6.4-4.3 2-6.8 2-8.4.1-.7-.8-1.9-1.5-2.6-1.5-1.1 0-1.4-1.7-1.4-6.9 0-7.5-.7-8.8-3.5-6.8-1.4 1.1-1.7 2.8-1.7 8.9 0 4.1.3 8.4.6 9.5.8 2.6 10.4 5.8 15.2 5 3.6-.6 10.4-5.2 10.4-7.1 0-.6.9-2.2 2-3.6 1.4-1.8 2-4.1 2-8.2 0-4.8-.4-6.1-2.7-8.6-4.7-5-7.6-6-12.3-4.1zM1111.3 209.6c-.4 1-1.6 1.4-3.7 1.2-2.9-.3-3.1-.1-2.7 2.7.2 1.6.5 6.8.7 11.5.9 18.7.6 18 10.6 20.3 6.2 1.4 6.8 1.3 9.4-.4 1.6-1 3.2-2.6 3.6-3.6 1.2-3.2.8-12.7-.7-15.7-.8-1.5-1.5-3.5-1.5-4.2 0-.8-.4-1.4-1-1.4-.5 0-1-.9-1-2s-.4-2-.9-2-1.3-.9-1.6-2c-1.6-5-9.7-8.2-11.2-4.4zm6.2 9.9c1.4 1.5 2.5 3.8 2.5 5.3s.7 3.6 1.5 4.6c1.6 2.1 1.9 5.3.9 8-.8 2.2-9.6 2.2-11.4.1-1-1.3-1-1.9.4-3.3 1.1-1.3 1.6-3.7 1.6-7.3 0-5 .8-9.9 1.6-9.9.2 0 1.5 1.1 2.9 2.5zM1044.1 210.6c-1.9 1.4-2.7 1.4-4.6.4-3.3-1.7-4.5-.5-4.5 4.4 0 2.3-.4 4.6-.9 5.1-1.2 1.4-3.1 9.8-3.1 14 0 3.2.4 3.8 3 4.8l3 1.1-2.1 2.3c-1.2 1.2-1.9 2.9-1.6 3.7.7 1.8 5.2 2.2 6.2.5.5-.7 2.5-.8 5.7-.4 4 .6 5.3.4 7-1.1 4.7-4.3 6-11.3 3.8-20.6-.5-2.4-1.2-5.5-1.5-7-.6-3-5.1-8.8-6.9-8.8-.6 0-2.2.7-3.5 1.6zm5.4 17.8c1.2 9.4.8 10.1-5.7 10.4-3.2.2-5.8.1-5.8-.1s1.4-3.4 3-7c1.7-3.7 3-7.5 3-8.6 0-1.1.6-2.1 1.3-2.4 1.9-.7 3.5 2.1 4.2 7.7zM957.1 213.1c-2 5.7-1.4 13.5 1.4 17.9 2.8 4.5 6.5 5.7 14 4.5 5-.7 7-3 12-13.9 3.1-6.8 3.1-8.4.1-9.8-3.5-1.6-5.6-.4-5.6 3.2 0 1.7-.4 3.8-.9 4.8-.5.9-1.5 3-2.2 4.6-1.6 3.4-4.8 5.1-8.3 4.2-2-.5-2.6-1.4-3.1-5-.4-2.4-.4-5.8 0-7.5 1.4-6.3-5.3-8.9-7.4-3zM994.1 215.2c-.7 1.8-1.7 4.1-2.2 5-.5 1-.9 2.9-.9 4.3 0 1.3-.9 4-2 6-2.6 4.7-2.6 8.1.1 9.6 3.2 1.7 6.9-.6 6.9-4.2 0-1.5.5-3.1 1-3.4 1.1-.7 4.9 3.2 5 5.1.1 3.1 7.1 2.2 8.4-1.1.3-.8 1.1-1.5 1.8-1.5 1.8 0 10.8-10.1 10.8-12.2 0-.9.9-2 2-2.3 1.4-.4 2-1.5 2-3.6 0-3.4-2.7-5.1-4.4-2.8-.6.9-1.9 1.8-2.8 2.2-1 .3-1.8 1.1-1.8 1.7 0 .7-1.8 2.9-4 5s-4 4.3-4 4.8c0 1.4-3.2 2.4-4.2 1.4-.5-.5-1.2-4.4-1.6-8.8l-.7-7.9-4.1-.3c-3.8-.3-4.2-.1-5.3 3zM1078.8 213c-1 .6-1.8 1.9-1.8 2.9 0 .9-1.3 3.2-2.9 5-1.6 1.8-3.2 4.4-3.6 5.9-.3 1.4-1.5 3.7-2.6 5-3.1 3.9-2.5 8.7 1.6 12.7 1.9 1.9 4.3 3.5 5.4 3.5 1.1 0 2.3.4 2.6 1 .8 1.3 5 1.3 7.3.1.9-.5 2.5-1.2 3.5-1.5 1.1-.4 1.7-1.6 1.7-3.5 0-3.8-2.7-5.5-5.5-3.5-2.8 2.1-5.9 1.7-8.5-1.1-3.3-3.5-1.6-4.9 5.4-4.6 4.9.2 5.6 0 7.1-2.3 2.1-3.2 1.6-8-.8-8.4-1.2-.3-2 .4-2.4 1.7-.4 1.7-1.3 2.1-4.5 2.1-3.9 0-4-.1-3.3-2.8.3-1.5 1-3.1 1.5-3.5.4-.5 4.8-1.5 9.6-2.2 4.9-.8 9-1.4 9.2-1.5.6-.1.1-3.9-.6-4.4-1.9-1.2-16.8-1.6-18.4-.6zM1217.1 213.7c-4.4 3.1-7.1 8.8-7.1 14.7 0 7.2 1.2 9.6 6.4 12.9 5.3 3.4 8.3 3.4 12.6.2 1.9-1.4 4-2.5 4.7-2.5.7 0 1.3-.7 1.3-1.5 0-.7.7-1.8 1.7-2.3.9-.6 1.4-1.6 1-2.5-.6-1.7-4-1.2-8.5 1.2-2.6 1.4-7.7 1.4-10.3.1-1.5-.8-1.9-2.1-1.9-5.9 0-5.7 2.2-8.6 4.3-5.6 3.1 4.2 7.9-1.8 6.3-7.9-.5-2.2-1.2-2.6-4.4-2.5-2 0-4.8.7-6.1 1.6zM1338 213.5c-.7.9-1 2.5-.6 4.1.6 2.3 1.1 2.5 4.8 2.2 4.4-.3 5.8 1 3.5 3.4-3.1 3.1-4.8 8.5-4.5 14.4.3 5.8.4 5.9 3.4 6.2l3.2.3.4-7.1c.2-3.9.9-7.4 1.4-7.8.6-.4 1.7-2.4 2.3-4.5l1.3-3.7h14l-.7 3.2c-.7 3.1-3.8 9.4-5.6 11.2-1.5 1.6-1.1 10.2.5 11.5 1.8 1.5 18.3 1.8 19.8.3.5-.5.8-2 .6-3.3-.3-2.1-.8-2.4-5.3-2.5-8.8-.1-9.5-.3-9.5-2.3 0-2.8 1.3-3.3 9-3.6 8.5-.2 10.3-1.7 9.8-7.9l-.3-4.4 6-.7c4-.4 6.7-1.3 8.3-2.7l2.2-2.1v5.1c0 2.8.5 5.4 1 5.7 2.2 1.3.8 4.3-4.7 9.9-5.3 5.5-5.6 5.9-3.8 7.2 1.5 1.1 2.2 1.1 3.4.1 3-2.3 7.8-4.6 8.5-4 .3.3.6 1.5.6 2.5s1.4 3.2 3 5l3 3.3 2-2.4c2.5-2.9 2.5-4.1 0-8.6-1.1-2-2-4-2-4.6 0-1.4 2.6-3.9 3.9-3.9.6 0 1.6-.9 2.3-2 .7-1.1 1.6-2 2.1-2 1 0 6.3-5.9 7.8-8.7 1-1.9.9-2.6-.6-4.3-2.4-2.7-3.3-2.5-5.3 1-.9 1.6-2.2 3-2.9 3-.6 0-1.5.9-1.8 2-.3 1.1-1.1 2-1.7 2-.6 0-2 .8-3.1 1.7-1.8 1.7-1.9 1.7-3.3-.2-.8-1-1.4-2.5-1.4-3.2 0-.8-.7-2.8-1.6-4.4-1.1-2.3-2-2.9-3.2-2.4-2.6 1.1-8.8 1.2-17.6.3-4.6-.5-9.2-.4-11.2.1-2.7.7-5.3.4-12.2-1.5-10.3-2.8-23.2-3.3-25.2-.9zm43 12.2c0 1.7-.7 2.4-2.7 2.9-1.6.3-3.3.7-4 .9-2.1.7-3-2.2-2.4-7.3.1-.5 2.1-.4 4.6.2 3.7.9 4.5 1.5 4.5 3.3zM1254 218c-.6 1.1-1.7 2-2.4 2-.9 0-1.7 1.6-2.1 4-.7 4-2.1 5-4.2 2.9-.7-.7-1.5-.5-2.7.6-2.1 2.2-2 2.9.9 6.1 1.4 1.5 2.5 3.2 2.5 3.8 0 1.4 8.4 4.6 12.1 4.6 5.6 0 9.5-2.6 11.8-7.9 1.1-2.7 2.1-5.7 2.1-6.6 0-2.2-2.8-7.5-4-7.5-.6 0-1-.9-1-2 0-1.8-.7-2-6-2-4.9 0-6.1.3-7 2zm9.4 5.6c3.9 3.8.7 10.4-5.1 10.4-3.1 0-3.3-.2-3.3-3.7 0-2.8.6-4.3 2.8-6 3.3-2.7 3.6-2.7 5.6-.7zM1286.2 218.5c-.7 1.4-1.2 3.3-1.2 4.1 0 .9-.9 2.9-2.1 4.5-2.5 3.6-2.4 12.2.2 12.7 2.1.4 6.4-4 7-7.3.6-2.7 2.6-2.9 3.4-.4.4 1.2 1.1 2.7 1.6 3.3.5.6 2 2.6 3.5 4.3 2 2.6 3.3 3.3 6 3.3 2.2 0 3.7-.6 4-1.5.4-.8 1.1-1.5 1.6-1.5 1.3 0 10.8-9.9 10.8-11.3 0-.5 1.1-2.3 2.6-3.9 3.1-3.8 3-8.1-.3-8.6-1.7-.3-2.3.2-2.3 1.6 0 1.1-.4 2.2-.9 2.4-1.1.4-8.1 9.5-8.1 10.6 0 1.5-6.8 4.4-8.9 3.7-2.1-.6-2.4-1.4-3.6-9-1-5.9-2.2-7.5-5.5-7.5-1.6 0-3.2-.5-3.5-1-1.1-1.8-3.2-1.1-4.3 1.5zM1440 218.3c-5.6 2.8-6.3 6-1.2 6.5 3.9.4 4 1.4.7 9.3-4.6 10.9-2.4 20.3 4 16.9 2.4-1.3 2.6-1.9 2.2-5.5-.5-4.6 1-16.1 2.5-18.8.9-1.7 2-1.9 9.9-1.5 8.6.3 8.9.2 8.9-1.9 0-2.8-1.7-3.7-11.4-5.7-9.8-2-10.1-2-15.6.7zM1308.4 297.5c-.9 2.2.3 3.3 6.2 6 6.5 3 12.9 3.2 16.3.6 3.3-2.5 2-4-3-3.4-4.9.7-14.6-1.5-15.3-3.3-.7-1.8-3.5-1.8-4.2.1zM1258.4 298.5c-.8 2.1.4 3.5 3.2 3.5 1.4 0 3.5.7 4.8 1.5 1.8 1.2 3.7 1.4 8 .9 3.1-.4 5.9-1.1 6.2-1.6.9-1.5-6.3-3.8-12-3.8-3 0-5.8-.5-6.1-1-.9-1.5-3.5-1.2-4.1.5zM1353.3 299.5c-1.4 1-.9 1.5 3.8 3.7 10.4 4.8 10.8 4.9 14.8 3.7 2-.7 4.2-1.3 4.9-1.5 2-.6 1.3-3.1-1-3.8-1.3-.3-5.1-.6-8.5-.6-3.4 0-6.4-.4-6.7-.9-1-1.5-5.5-1.9-7.3-.6zM1163.2 299.9c-1 .6-.6 1.1 1.5 1.9 1.6.5 3.7 1.8 4.7 2.7 2.5 2.5 8.9 2.6 9.4.1.5-2.2-1.4-3.6-5-3.6-1.5 0-3-.5-3.3-1-.8-1.2-5.5-1.3-7.3-.1zM1206.5 300c-.4.7.1 1.3 1.4 1.7 1.2.3 2.1.9 2.1 1.4 0 .5 1.7.9 3.8.9 2.1 0 4.4.6 5 1.2 1 1 1.7 1 3.2 0 1.1-.6 2.7-1.2 3.6-1.2.8 0 1.4-.6 1.2-1.3-.3-.7-3.1-1.4-6.9-1.8-3.5-.3-7.8-.9-9.5-1.3-2.1-.5-3.4-.4-3.9.4zM1128.7 301.6c-1.4 1.4.6 2.4 4.8 2.4 2.4 0 4.7.4 5 1 .9 1.5 5.8 1.2 8.3-.6 1.2-.8 2-2 1.7-2.5-.7-1-18.8-1.3-19.8-.3zM1395.7 301.7c-1.2 1.2-.7 1.8 2.4 3.2 1.8.8 3.4 2.2 3.6 3.2.3 1.1.9 1.9 1.4 1.9.4 0 1.7.9 2.8 2.1 1.5 1.6 3.7 2.2 10.3 2.8 7.8.7 10.8.2 10.8-1.9 0-.4-1.9-1-4.2-1.4-10.6-1.3-11.6-1.7-15.7-6.2-3.2-3.5-4.6-4.4-7.4-4.4-1.8 0-3.7.3-4 .7zM1092 304c-1.3.8-1.3.9 0 1.4 3 .9 7.6 1.8 10.5 1.9 3.7.2 4.8-2.7 1.3-3.7-3.4-.9-10.1-.7-11.8.4zM1380.2 303.9c-1 .6-.9 1 .7 1.4 1.4.3 2.1 0 2.1-.9 0-1.6-.9-1.8-2.8-.5zM1438.5 314.9c-.7 1.2 2.2 4.1 4 4.1 1.5 0 10.1 5.5 11 7.1.4.5 1.4.9 2.3.9 1 0 2.3.9 3 2.1 1 1.5 2.1 1.9 5 1.7 5-.4 4.9-2.9-.3-4.6-2.2-.7-4.3-2-4.8-2.8-.4-.7-1.4-1.4-2.1-1.4-.8 0-1.6-.6-1.9-1.4-.7-1.6-6.3-4.6-8.8-4.6-1 0-2.1-.5-2.4-1-.8-1.3-4.2-1.3-5-.1zM1004.6 324.4c-3 2.7-3.5 6.6-.8 6.6.9 0 2.3-.9 3-2 .7-1.1 2.1-2 3.1-2 2.6 0 3.6-1.7 2.1-3.5-1.8-2.2-4.5-1.8-7.4.9zM220.3 332.5c-.8 2.3 1.8 4.3 6.6 5 2 .3 5.3 1 7.4 1.5 2.4.5 5 .4 6.8-.2 1.6-.5 3.6-.7 4.4-.4 2.3.8 1.8-1.1-.7-2.8-1.2-.9-4.1-1.6-6.3-1.6-3.9-.1-9-.9-14.7-2.5-2.2-.5-2.9-.3-3.5 1zM1046 333c-.7 1.4-1 8.7-.8 21.1.3 18.9.3 19 2.8 20.9 3.2 2.5 3.5 2.5 6.5-.7 2.2-2.5 2.5-3.6 2.5-10.1 0-7.1.1-7.3 2.3-6.7 1.2.4 2.7 1.3 3.2 1.9.9 1.2 5.8 4.6 12.1 8.6 1.3.8 2.4 2 2.4 2.5 0 .6 1.4 2.1 3.2 3.5 5 4 13.8 12.9 13.8 14 0 .5.6 1 1.3 1.1.6 0 2.2 1.3 3.5 3 2.3 2.9 2.3 2.9.3 2.9-1.2 0-4 1.2-6.2 2.7-3.4 2.2-4 3.1-3.7 5.7.3 2.8.7 3.1 4.1 3.4 2.6.2 3.9-.1 4.3-1.2.5-1.3 2.6-1.6 12-1.6h11.4v-4.8c0-2.6-.4-5.2-.8-5.8-.5-.5-1.5-2.5-2.2-4.4-.7-1.9-2.1-4.4-3.1-5.5-1.2-1.4-1.9-4-2.1-8.5-.3-6.1-.4-6.5-2.7-6.5-1.3 0-2.7.7-3.1 1.5-.4.8-1.2 2.5-1.8 3.7-1.4 2.7-1.5 5.5-.3 6.8.5.6 1.2 2.8 1.5 5l.7 4-3.9-4c-2.1-2.2-6.3-6.3-9.4-9.2-3-2.8-5.8-5.9-6.1-6.7-.4-.9-1.1-1.6-1.8-1.6-1 0-9.3-6.2-11.4-8.6-.5-.6-1.8-1.6-2.8-2.1-1-.5-3.9-3-6.5-5.5-3-2.9-5.8-4.7-7.7-5-2.2-.2-3.1-.9-3.3-2.6-.3-1.7.1-2.2 2-2.2 1.3 0 2.8.4 3.4.9 5.2 5 17.4 6.9 20.8 3.2 2.2-2.4 1.1-5.1-2.3-5.1-1.4 0-3.9-.9-5.6-2-1.6-1.1-4.3-2-6-2-1.6 0-5.2-1.4-8-3-6-3.5-10.9-3.9-12.5-1zM169.8 334.1c-3.2.4-6.7 1.3-7.7 1.9-1.1.5-3.2 1-4.6 1-2 0-2.6.4-2.3 1.7.3 1.5 1.8 1.9 9.3 2.4 7.8.5 9.1.4 10.5-1.2.8-1 3.4-1.9 5.8-2.2 4.9-.5 5.7-1 4.9-3.2-.7-1.7-6.2-1.8-15.9-.4zM291 334.8c0 2.6 7.9 6.3 15 6.9 5.9.6 13-1.5 13-3.7 0-.6-3.5-1-7.8-1-5.8 0-8.6-.5-11.5-2-4.8-2.6-8.7-2.7-8.7-.2zM1481 334.4c0 .8.9 3.1 2 5.1 1.1 2 2 4.6 2 5.9 0 2.8 1.5 4.2 5.2 5.1 3.8 1 5.1-2.1 2-4.6-1.2-.9-2.2-2.3-2.3-3.1-.2-3.1-4.5-9.3-6.7-9.6-1.4-.2-2.2.2-2.2 1.2zM139.7 334.7c-1.3 1.2-.7 5.2.9 6.1 2.2 1.2 5.4.3 5.4-1.5 0-.8-1-2.3-2.2-3.4-2.5-2-3.1-2.2-4.1-1.2zM349.7 337.6c-1.7 1.7-.4 3.3 4.6 5.8 6.3 3.1 5.9 3 12.5 1.1 5.3-1.6 6.2-3.5 1.7-3.5-1.3 0-2.6-.4-2.9-.9-.3-.5-2.3-1.1-4.3-1.5-2.1-.3-5.4-.8-7.3-1.1-1.9-.4-3.8-.3-4.3.1zM418 338.9c0 1.2.9 2.3 2.3 2.7 1.2.4 3.3 1.5 4.6 2.5 3.1 2.4 11.3 2.6 13.6.3 2.3-2.4.7-3.5-6.4-4.3-3.4-.4-6.7-1.3-7.3-1.9-.7-.7-2.5-1.2-4-1.2-2.1 0-2.8.5-2.8 1.9zM106.7 341.6c-1.2 1.2.4 2.4 3.3 2.4 3.6 0 6.1-1 5.4-2.1-.6-1-7.7-1.2-8.7-.3zM466 343.4c0 2.4 1.9 4.1 8.6 7.8 3.9 2.1 8.9 1.1 8.9-1.7 0-1.3-1.4-2.1-5.5-3.2-3.2-.7-6.1-2.2-6.9-3.3-1.9-2.9-5.1-2.6-5.1.4zM980.6 344.2c-1.8 3.5-2.1 10.4-.6 11.3 1.7 1 4-1.5 4-4.2 0-1.3.7-3.5 1.6-4.8 1.9-3 1.2-5.5-1.5-5.5-1.2 0-2.6 1.2-3.5 3.2zM1396 352.5c-.7.8-1.8 1.5-2.4 1.5-.6.1-2.4 1.1-3.9 2.4-2.2 1.7-2.8 3-2.5 5.1.5 4.5 4.4 5.2 13.5 2.6 8-2.4 12-2.1 10.7.7-.4 1-.9 3.5-1.1 5.7-.2 2.2-.8 4.9-1.3 6-2 4.8-2.1 7.4 0 9.5 1.1 1.1 2.7 2 3.5 2 2 0 3.7-3.5 3-6.3-.4-1.5.1-3.7 1.3-5.9 1.3-2.3 2.2-6.5 2.7-12.4.9-12.1.2-12.7-13.1-10.9-3.4.5-5.4.4-5.8-.4-1-1.6-3.1-1.4-4.6.4zM512.8 355.2c-.7 2.1 1.4 6.4 3.6 7.5 8.7 4.5 11.5 5.1 12.4 2.6.2-.8-1.6-2.1-4.3-3.3-2.5-1.1-5.7-3.3-7.1-5-2.8-3.2-4-3.7-4.6-1.8zM1497.7 358.7c-.7.6-.3 4.8 1.4 15.3 1 5.5 1.6 6.8 3.7 7.8 4.6 2.1 5.7-1.3 2.2-7-1.1-1.8-2-4.2-2-5.4 0-1.1-.7-2.9-1.5-4-.8-1-1.5-2.9-1.5-4.1 0-2.3-1.3-3.7-2.3-2.6zM66.4 363.5c-.4.9-.2 2.1.4 2.7 1.6 1.6 4.7.5 4.7-1.7 0-2.6-4.2-3.4-5.1-1zM533 367c0 .5.7 1 1.6 1 .8 0 1.2-.5.9-1-.3-.6-1-1-1.6-1-.5 0-.9.4-.9 1z" fill="#222020"/><path d="M1399.9 367.7c-.9 1-2.1 3.2-2.8 5-.7 1.8-2.2 3.5-3.2 3.8-1 .4-1.9 1.1-1.9 1.7 0 1.2-5.3 6.3-7.5 7.2-.8.3-1.5 1.2-1.5 2.1 0 .8-.7 1.5-1.5 1.5s-1.9.9-2.5 2c-.6 1.1-1.7 2-2.5 2s-1.5.4-1.5 1c0 .5-.6 1-1.2 1-.7 0-4.7 3.4-8.8 7.6l-7.5 7.6-.3-4.8c-.4-8.9-.8-9.6-5-9.2l-3.7.3-.3 11.5c-.1 7.5-.8 13.1-1.9 16.2-1.4 4-1.4 4.9-.3 6.3 1.1 1.4 2.5 1.5 7.4 1 3.4-.4 6.6-1.1 7.1-1.5.6-.4 3.4-1.3 6.4-1.9 8.8-1.9 10.3-4.4 5-8.2-2.6-1.8-3.4-2-5.3-1-1.2.7-4.4 1.1-7.2.9l-4.9-.3 3.5-1.7c2-.9 7.2-5.3 11.6-9.7 4.5-4.5 8.4-8.1 8.8-8.1.3 0 2-1.4 3.8-3 1.7-1.7 3.5-3 4-3 1.3 0 15.8-14.6 15.8-15.9 0-.6 1.1-2 2.4-3.3 1.4-1.3 2.6-3.7 2.8-5.3.3-2.7 0-3-2.8-3.3-1.9-.2-3.5.3-4.5 1.5zM96.8 373.7c-1.1 1.4-1.5 5.9-1.7 21.5-.2 18.7-.1 19.7 1.8 20.7 4.5 2.5 7.1-2.1 7.1-12.6 0-4.2.4-7.3 1-7.3s1 .5 1 1c0 .6 1.6 2.6 3.5 4.6 1.9 1.9 3.5 3.8 3.5 4.3 0 .4 2.7 3.7 6 7.2s6.7 7.6 7.6 9.1c.8 1.6 1.8 2.8 2.3 2.8.5 0 3.5 2.5 6.6 5.5 3.2 3 6.2 5.5 6.7 5.5.4 0 .8.6.8 1.4 0 .8.4 1.6.9 1.8 1.4.5 10.1 7.8 13.9 11.8 3.6 3.6 2.7 5.7-1 2.4-1.5-1.5-3.6-1.9-8.7-1.9h-6.6l-.3 4.2c-.3 4.7.9 5.5 4.8 3.1 1.6-1 2.2-1 3.2.5.7.9 5.4 3 10.3 4.7 5 1.7 9.5 3.8 10.1 4.6.6.8 2.3 1.4 3.6 1.4 4.1 0 7.5-6.9 4.8-9.6-.8-.8-2.6-13.9-3.3-23.9-.2-3.3-.6-4-2.7-4.6-4.8-1.2-6 .5-6 8.1 0 8.3-.9 8.8-6 3-1.9-2.2-3.8-4-4.2-4-.4 0-1.8-1-3.1-2.3-7.4-6.9-12.3-11-14.4-12-1.3-.5-2.3-1.5-2.3-2.1 0-.6-3.2-4.6-7-8.9-3.9-4.3-7-8.2-7-8.7 0-.6-.6-1-1.3-1-.8 0-3.1-2.5-5.3-5.5-2.1-3-4.5-5.4-5.1-5.5-1.6 0-4.3-6.2-3.3-7.3.4-.4 4.3.2 8.8 1.4 9.1 2.4 11.2 2.1 11.2-1.5 0-3-1.9-4.1-8.4-5-2.7-.3-5.4-1-6-1.5-.6-.5-2.5-1.2-4.2-1.5-1.7-.4-4.1-1.8-5.3-3.1-2.5-2.9-4.2-3.1-6.3-.8zM546.7 374.7c-.4.3-.7 1.8-.7 3.3 0 4.5 7.5 9.5 9.9 6.6.7-.9 0-2.2-2.4-4.5-1.9-1.8-3.5-3.9-3.5-4.7 0-1.4-2.1-1.9-3.3-.7zM1173.5 374.7c-3.7.9-11.3 6.8-13.6 10.5-1.3 2.1-2.7 3.8-3.1 3.8-.5 0-.8 3.9-.8 8.6 0 8.3.1 8.7 3.6 12.9 1.9 2.4 4.9 4.8 6.6 5.4 3.9 1.4 11.8 1.4 15.3.1 3.2-1.2 10.4-7.1 10.5-8.5.2-3.1 7-7.5 7-4.5 0 .5.6 1 1.3 1 .8 0 2.2.9 3.2 2s2.6 2 3.6 2 3.4.9 5.3 1.9c1.9 1.1 5.2 2.3 7.3 2.6 6.3 1.1 15.7 4.8 17.1 6.7.7 1 1.9 1.8 2.5 1.8.7 0 1.8.9 2.5 2s1.8 2 2.6 2c1 0 1.1.9.4 4.2-1.4 6.4.6 11.6 5.7 14.5 3.3 1.9 5.5 2.3 12.7 2.3 4.8 0 9-.5 9.3-1 .3-.6 1.3-1 2.2-1 .8 0 2.9-1 4.5-2.2 3-2.1 3.1-2.1 4.4-.3.8 1 1.4 2.4 1.4 3 0 .7.9 2 2 3s2 2.3 2 2.9c0 .6.8 1.6 1.9 2.3 1 .6 2.1 2.3 2.5 3.7.3 1.4 1.7 3.6 3.1 5 1.3 1.3 2.7 3.7 3.1 5.3.4 1.5 1.5 4 2.5 5.5 1.1 1.4 1.9 3.1 1.9 3.8 0 .6.9 2.3 2 3.7 1.1 1.4 2 3.3 2 4.3 0 .9.9 2.5 2 3.5 1.6 1.4 2 3.1 2 8 0 4.7.5 6.9 2 8.8 2.5 3.2 2.5 3.7 0 3.7-3.9 0-9.9 2.5-10.3 4.2-.3 1-1.1 1.8-1.9 1.8-2 0-4.7 5.4-3.7 7.3.7 1.2 1.6 1.3 5.1.4 4.2-1 5.1-1.6 8.7-4.8 1-.8 2.5-1.8 3.4-2.2.9-.3 1.7-1.3 1.7-2.1 0-2.6 2.1-2.9 4.5-.6 2.5 2.3 11.7 4.1 17.2 3.3 4.3-.7 9.3 3 9.3 6.9 0 1.5.3 2.8.8 2.8.9 0 3.2 4.9 3.2 6.7 0 .8.9 3.2 2.1 5.5 1.8 3.6 2 5.3 1.6 15.7-.3 6.4-1 13.8-1.6 16.6-.6 2.7-1.5 7.7-1.9 11-.5 3.3-1.6 7.6-2.5 9.5-.9 1.9-1.9 5.5-2.2 8-.3 2.5-1.1 4.9-1.8 5.5-.6.5-2.2 3-3.5 5.4-3.7 7.1-5.6 10.5-6.9 11.8-1.8 2-5.1 1.6-5.8-.7-.8-2.5-2.8-3.6-8.3-4.5-5.9-1-14 .3-16.3 2.6-1 1-2.3 1.9-2.7 1.9-1.4 0-4.2 3.5-4.2 5.3 0 2.5 4.7 2.2 6-.3.6-1.1 1.9-2 3-2 1 0 2.2-.5 2.5-1 .8-1.4 9.8-1.3 12.9.1 2.5 1.2 2.9 2.3 4.1 11.1.8 6.5-1.3 10-9 14.5-7.1 4.2-10.3 4.3-17 .2-5.5-3.3-8.5-7.5-8.5-11.9 0-1.6-.4-4-1-5.4-.7-1.8-.5-3.5.5-6 1.3-3 1.3-3.5-.1-4-.9-.3-2-.3-2.6 0-4 2.5-5.3 18.7-1.8 23.1 1.1 1.4 2 3.1 2 3.7 0 2.2 5.4 6.3 10 7.6 5.7 1.7 15 1.9 18.1.4 1.3-.7 4-1.9 5.9-2.8 1.9-.9 5.1-3.3 7.1-5.3 3.1-3.3 3.7-4.8 4.7-11.4 1-7 1.5-8.1 5.4-12.2 2.4-2.5 5-5.3 5.8-6.3 2.1-2.6 7-12.6 7-14.4 0-.8.7-2.8 1.5-4.4.8-1.6 1.8-5.4 2.1-8.5.4-3.1 1.4-7 2.2-8.6 2.8-5.5 5.1-36.4 3.2-42.9-3.4-11.3-9.7-24.6-11.7-24.6-2.2 0-2.5-2.1-.6-4.3 1.1-1.2 3.2-4.6 4.6-7.4 2.2-4.3 2.7-6.6 2.7-12.6 0-11.2 0-11.2-16.9-11-10.9.1-14.6.5-16.3 1.7-4.8 3.4-10.7 1.1-10.8-4 0-1.1-.9-2.9-2-3.9s-2-2.7-2-3.8c0-1.1-.7-2.9-1.7-3.9-.9-1-2.1-2.6-2.7-3.7-6.5-10.9-7.9-13-9.1-13.5-.8-.3-1.5-1.2-1.5-1.9 0-.8-.7-2-1.5-2.7-.9-.7-2.3-2.8-3.1-4.6-.9-1.9-2-3.4-2.5-3.4s-.9-2.8-.9-6.3c0-4.8-.6-7.6-2.6-11.5-1.4-2.9-3.1-5.2-3.8-5.2-.7 0-2.1-.9-3-1.9-3.2-3.5-7.1-4.5-12.2-3.1-2.5.7-5.1 2.1-5.7 3.2-.7 1-1.7 1.8-2.4 1.8-2.2 0-6.2 4.9-6.9 8.5-.9 4.9-3.4 4.6-3.4-.4 0-2.8-.5-4-1.7-4.5-1-.3-3.2-1.6-4.9-2.9-1.8-1.3-5.8-3.1-9-4.1-3.3-.9-7.8-2.6-10.2-3.7-2.3-1-5.3-1.9-6.7-1.9-1.3 0-2.7-.5-3-1-.3-.6-1.5-1-2.6-1-1 0-1.9-.3-1.9-.8 0-.4-1.8-1.8-4-3.2-3.6-2.2-4-2.8-4-6.6 0-2.4-.4-4.6-1-4.9-.5-.3-1-1.4-1-2.4 0-4.9-14.4-10.3-22.5-8.4zm11.9 6.9c.9.3 1.6 1 1.6 1.5s.9 1.8 2 2.9c1.1 1.1 2 3.3 2 4.8 0 4.8-7.2 17.2-9.9 17.2-.7 0-2.3.7-3.6 1.6-3.5 2.3-7.9 1-12.5-3.9-4.2-4.3-4.8-6.4-2.7-8.6.9-1.1.9-1.4 0-1.8-.9-.3-.3-1.9 1.9-5.1 5.3-7.7 7.5-9.1 14-9.2 3.1 0 6.3.3 7.2.6zm86.2 31.4c.8 0 1.4.6 1.4 1.4 0 .8.9 1.8 2 2.1 1.5.5 2 1.5 2 4.1 0 2 .5 4.4 1.1 5.5 1.4 2.6.4 5.2-3.5 9.4-3.3 3.4-3.5 3.5-11.3 3.5-7.1 0-8.3-.3-10.7-2.5-3.4-3.2-3.5-7.7-.1-10.7 1.4-1.2 2.5-2.8 2.5-3.5 0-.7.5-1.3 1-1.3.6 0 1.6-1.1 2.2-2.5.6-1.4 1.7-2.5 2.4-2.5s1.7-.6 2.1-1.4c.9-1.5 4.1-2.6 6.1-2 .8.2 2 .4 2.8.4zm75.9 70.8c.6.4 1.6 2 2.3 3.6 1 2.3 1 3.2-.1 5-.8 1.1-1.7 3.4-2.1 5-1.6 6.6-9.3 12.3-14.9 11-9.1-2-14.6-10.1-10.4-15.3.7-.8 1.1-2.2.9-3.1-.2-1.3.9-2 4.5-3 2.6-.7 6.6-1.8 8.8-2.6 4.5-1.5 9.5-1.8 11-.6zM967.7 377.8c-1 1.1-1.3 2.2-.8 2.8.5.5 1.1 2.5 1.3 4.4.2 2.7.8 3.6 2.6 3.8 2.1.3 2.2 0 2.2-6.2 0-5.7-.2-6.6-1.8-6.6-1.1 0-2.6.8-3.5 1.8zM51.1 391.1c-2.4 2.3-2.3 4.2.2 4.7 2.2.4 4.7-2.1 4.7-4.7 0-2.7-2-2.7-4.9 0zM471 394.2c-3.2.9-8.6 3-16.7 6.4-2.7 1.1-3.3 1.9-3.3 4.4v3h6c4.9 0 6.2-.4 7.2-2 1.5-2.3 5.8-2.7 5.8-.6 0 .8-1 1.8-2.2 2.2-2.1.6-11.6 7.4-20.8 14.8-2.5 2-4.9 3.6-5.4 3.6s-2 1.1-3.5 2.5c-6 5.8-6.9 6.5-7.7 6.5-.5 0-3.4 2.3-6.4 5.1-3 2.8-6.6 5.9-8 6.7-2.9 1.8-4.1 2.9-9.2 7.7-2 1.9-3.9 3.5-4.2 3.5-.3 0-.6-3.4-.6-7.5V443l-3.2.1c-1.8 0-4.6.8-6.3 1.8-2.7 1.6-2.9 2.2-3.1 8-.2 3.8-1.1 8-2.3 10.7-2.9 6-2.7 10.1.5 13 3.2 3 9 3.2 14.4.4 2.2-1.1 5.9-2 8.5-2 2.6 0 6.9-1 9.6-2.1 4.5-2 4.9-2.4 4.9-5.5 0-1.8-.4-3.5-.8-3.8-.7-.4-4 0-15.9 2.1-4.4.7-4.3-1.2.2-3.8 2-1.2 4-3 4.6-4 .5-1.1 1.5-1.9 2.2-1.9.7 0 3.5-2.2 6.3-4.9s6.9-6 9.1-7.4c2.2-1.4 5.3-3.9 7-5.6 1.8-1.7 3.5-3.1 4-3.1.4 0 2.5-1.5 4.5-3.4 2-1.8 6.7-5.2 10.5-7.7 3.7-2.4 7.6-5.4 8.6-6.6 1-1.3 2.4-2.3 3.2-2.3.7 0 1.8-.7 2.5-1.5 3.3-4 4.2 1 .9 5.6-1.1 1.6-1.9 3.9-1.7 5.2.2 1.8 1 2.3 4.3 2.5 3.6.2 4.2-.1 5.7-2.8 1-1.7 2.2-2.9 2.8-2.5.5.3 1.9.1 3-.5 1.7-.9 2-2.1 2-7.3 0-4.4.6-7.1 2-9.5 2.5-4.1 2.5-7.4.2-9.5-2.1-1.9-13.2-2.2-19.2-.5zM555.2 399c-1.7 5.5-1.5 7.3 1 12.5 1.4 2.9 2.9 4.5 4 4.5 2.2 0 2.2-.2.2-8.6-.8-3.6-1.2-7.9-.9-9.5.5-2.4.3-2.9-1.2-2.9-1.2 0-2.2 1.2-3.1 4zM1513.6 395.8c-.5.9.8 11.1 2.2 16.3 1.8 7.1 6.3 11.3 7.9 7.4.3-.9-.4-4.1-1.6-7.1-1.1-3.1-2.1-6.6-2.1-7.9 0-5.5-4.5-11.7-6.4-8.7zM961.6 419.1c-2 4-2 6.8-.1 7.6 2.7 1 5.6-2.7 5.3-6.6-.4-4.8-3.1-5.3-5.2-1z" fill="#222020"/><path d="M1173.4 424.1c-1.7.9-2.4 2.9-3.8 11.2-.9 5.6-2.1 12.1-2.6 14.5-.6 2.3-1 5.5-1 7.2 0 1.6-.4 3.2-1 3.5-.5.3-1 2.5-1 4.9v4.2l-5.1 1.3c-2.8.8-6.1 1.9-7.3 2.5-3.3 1.9-8.6 6.9-8.6 8.3 0 .7-.3 1.3-.8 1.3-1.5 0-3.3 6-3 10.1.3 3.8.9 4.8 5.6 8.6l5.3 4.3h8.8c7.3 0 9.3-.3 11.4-2 1.4-1.1 3-2 3.6-2 1.5 0 6.1-10.2 6.1-13.6 0-1.6-.9-4.5-2-6.4-1-1.9-2.2-4.2-2.5-5.1-.4-.8-2-2-3.7-2.7-2.6-.9-2.9-1.5-2.4-3.4.4-1.3 1.2-5.7 1.7-9.8 1.2-10.2 2-13.9 3-14.6.5-.3.9-2.5.9-4.9 0-2.4.9-6.5 2-9.1 3.2-7.5 1.7-10.9-3.6-8.3zm-11.6 56.1c.4 3.7 3.7 6.5 5.7 4.8.8-.7 1.5-2 1.5-2.9.1-1.4.2-1.4.9-.1 2 3.5 2.2 7.9.6 11.5-1.5 2.9-2.2 3.5-4.9 3.5-1.8 0-3.7.5-4.4 1.2-.9.9-2.4.8-6.6-.1-4.6-1-5.8-1.7-7.1-4.3-1-2.2-1.2-3.5-.5-4.2.5-.5 1-2 1-3.2 0-1.5 1.6-3.2 5.3-5.7 6-4.1 8.1-4.2 8.5-.5zM564 432.9c0 3.3-.4 6.3-1 6.6-.5.3-1 3.2-1 6.4 0 6.2 2.5 11.1 5.7 11.1 1.2 0 1.4-.8.9-4.3-.3-2.3-.7-8.5-.9-13.8-.2-5.3-.7-10.1-1.1-10.8-1.6-2.6-2.6-.7-2.6 4.8zM1227.8 438.9c-4.7 4.5-6.6 6.1-7.3 6.1-.7 0-3.1 1.9-5.3 4.2-.9 1-2 1.8-2.5 1.8s-2.9 2-5.4 4.5c-2.4 2.5-5.8 5.2-7.6 6.1-1.8.9-3.6 2.3-4 3-.4.8-1.4 1.4-2.2 1.4-.7 0-1.6.9-2 1.9-.3 1-1.5 2.1-2.5 2.4-1.1.3-2 1.2-2 2.1 0 .9-.7 1.6-1.5 1.6-1.9 0-3.8 4.6-3 7.1.8 2.5 4.5 2.4 5.2-.1.3-1.1 1-2 1.6-2 .5 0 2-1 3.2-2.3 1.2-1.2 4.4-4 7-6.2 2.6-2.2 5.7-5 6.8-6.3 1.1-1.2 2.6-2.2 3.2-2.2 1.2 0 6.6-4.3 9.8-7.8 1.1-1.2 2.6-2.2 3.3-2.2.7 0 1.4-.3 1.6-.8.8-1.9 9.8-8.3 13.4-9.4 3.1-1 4-1.8 4.2-4.1.3-2.7.2-2.7-5-2.6-4.7.1-5.7.6-9 3.8zM33.7 439.7c-2.4 2.3 1 8.3 4.6 8.3 1.8 0 2-1.1 1.1-5.9-.5-2.3-1.2-3.1-2.9-3.1-1.2 0-2.5.3-2.8.7zM1522 455.8c-.9 3.8-.9 5.9 0 8.8 1.1 3.8 5.6 10.1 6.5 9.2.3-.3 0-4-.5-8.4-1.9-14.8-3.9-18.1-6-9.6zM635 460.1c0 2.6.7 5 2 6.6 1.1 1.4 2 3.6 2 4.9 0 1.4-.8 2.5-2 2.9-1.1.3-2 1.2-2 2s-.9 1.6-1.9 2c-3.5 1.1-4.6 3.3-3.1 6 2.1 3.9 3.9 3.4 10.1-3.2 2.7-2.7 4.2-2.1 5.9 2.2 1.5 3.9 3.3 4.9 6.1 3.5 2.3-1.3 2.4-3.1.4-7.1-1.2-2.2-1.4-4.5-.9-8.8.5-5 .4-5.9-1.2-6.5-.9-.4-2.2-.2-2.8.4-1.7 1.7-3.1 1.1-4.5-2.1-1.5-3.5-4.9-6.9-6.8-6.9-.9 0-1.3 1.4-1.3 4.1zM610.6 460.2c-3.3 3.9-6.1 9.1-7.1 13.6-.4 1.8-1.3 4.5-2.1 6-2.1 4-1.7 5.6 1.8 8.2 6.4 4.7 22.4 2.2 21.6-3.5-.3-1.8-1-2-8.3-2h-8l.2-2.9c.3-3.7 1.9-5.4 3.5-3.8 1.6 1.6 5.8 1.5 10.1-.3s5.3-3.1 3.7-5c-1.6-1.9-.5-4.6 1.4-3.9 2.4.9 5.6-1.4 5.6-4.1 0-2.2-.4-2.5-3.7-2.5-2.1-.1-5.6-.7-7.8-1.5-5.9-2.1-7.7-1.9-10.9 1.7zm9 6c.9 1.5-1.7 3.8-4.2 3.8-2.6 0-3.3-2.7-1.3-4.7 1.2-1.2 4.6-.6 5.5.9zM664.8 458.7c-.9.9-2.7 1.7-4 1.8-2.2.2-2.3.5-2.6 10.9-.3 11.5.4 13.6 4.2 13.6 3.2 0 4.6-1.9 4.6-6.2 0-3.7.1-3.8 3.4-3.8 1.9 0 3.8-.5 4.1-1 .3-.6 1.3-1 2.2-1 1.1 0 1.4.6 1 2.2-.9 3.2 1.8 7.5 5.2 8.3 3 .6 9.3-1.4 10.5-3.4 1.3-2 5-1.2 7.2 1.6 1.4 1.7 2.6 2.4 3.7 2 1.4-.5 1.7-2.2 1.7-10 0-7.1-.4-9.8-1.5-10.7-2-1.6-3.2-.6-3.9 3.3-.7 3.6-5.2 6.9-11.4 8.2-3.9.8-5.4-1.5-2.8-4.4 2.6-2.8 1.8-9.5-1.1-9.9-1.3-.2-2.7.5-3.7 1.9-1.3 2-1.6 2-2.2.6-.9-2.4-6.7-5.7-10.1-5.7-1.6 0-3.6.7-4.5 1.7zm5.2 6.3c0 .5-.7 1-1.6 1-.8 0-1.2-.5-.9-1 .3-.6 1-1 1.6-1 .5 0 .9.4.9 1zM749.4 462.4c-.8 3.4.2 4.6 3.8 4.6 2.7 0 3 .2 2.3 2.2-.4 1.3-1 5-1.2 8.3-.4 5.1-.1 6.3 1.5 7.8 1.8 1.7 2.1 1.7 3.6.2 1-1.1 1.6-3.4 1.6-6.5 0-2.7.5-5.2 1-5.5.6-.3 1-1.9 1-3.6 0-3.2.3-3.4 3.1-1.9 2.3 1.3 6.9-1.3 6.9-3.9 0-2.1-8.1-4.1-16.8-4.1-5.7 0-6.2.2-6.8 2.4zM715.3 463.2c-5.7 9-3.9 18.2 4 21.3 4.2 1.6 4.5 1.6 8-.5 3.9-2.3 4.7-4.9 2.2-7-1.2-1-1.9-1-2.7-.2-1.9 1.9-4.5 1.4-6.2-1.2-1.4-2.3-1.4-2.6.1-4.2 2.5-2.5 4.5-6.6 3.9-8.1-.7-1.7-8.2-1.7-9.3-.1zM957.2 465.6c-.8.9-1.2 3.3-1 6.2.3 4 .6 4.7 2.6 5 2.2.3 2.3.1 2-5.9-.3-6.4-1.3-7.9-3.6-5.3zM735.7 466.7c-.4.4-.4 2.1-.1 3.9.4 2.1 0 4.4-1 6.5-2.4 4.8-2 8.4 1.1 10.8 2.4 2 2.7 2 4.5.5 1.5-1.5 1.8-3.3 1.8-12.1V466h-2.8c-1.6 0-3.2.3-3.5.7zM372.5 471c-.4.6-.3 1.6.3 2.2.6.6 1.2.6 1.7-.2.4-.6.3-1.6-.3-2.2-.6-.6-1.2-.6-1.7.2zM579.7 486c-4.2 2.8-7.7 5.5-7.7 6 0 .6-.7 1-1.5 1-1 0-1.5-1-1.5-3 0-1.7-.5-3-1.2-3-1.9 0-3.8 4.8-3.8 9.7 0 3.7-.6 4.8-5 9.4-2.7 2.8-5 5.5-5 5.9 0 .4-1 1.5-2.1 2.6-3.9 3.5-10.9 13.4-10.9 15.3 0 1.1-.9 2.3-2 2.6-1.1.3-2 1.4-2 2.4s-.8 2.9-1.8 4.2c-1.1 1.3-3.8 6.3-6.1 11.1-2.4 4.8-4.9 9.2-5.7 9.9a4 4 0 00-1.4 2.8c0 .9-.9 3.1-2 4.9-1.1 1.8-2 4.4-2 5.8 0 2.3-.3 2.5-2.2 1.9-4.9-1.5-6.4-1.5-8.2 0-2.5 1.9-2.3 6.7.3 10.4 1.5 2.1 2.1 4.5 2.1 8.4 0 5 .2 5.5 2.4 6.1 3.5.9 5.4-.2 7.2-4 1.1-2.2 2.6-3.6 4.3-4 3.3-.8 8.1-6 8.1-8.9 0-2.8-3.2-5.7-5.4-4.9-1.7.7-2.2-.6-.8-2.1.5-.6 1.4-3 2.1-5.5 1.8-6 1.7-5.8 5.1-11.5 1.6-2.8 3.6-6.4 4.4-8 .9-1.7 2.9-5.3 4.6-8 1.7-2.8 3.3-5.7 3.6-6.5 1.5-4.1 5.5-9.5 16.7-22.3 1.5-1.7 2.7-3.5 2.7-3.9 0-.5.7-.8 1.5-.8s1.5.4 1.5 1c0 1.4 5.2 6 6.2 5.4.5-.3.5-1.1 0-1.7-.5-.7-1.2-3.5-1.5-6.4-.5-4.7-.3-5.5 2.7-9.3 3.2-4 14-12 16.2-12 1.9 0 2.4-2.8.8-4.5-2.4-2.4-4.5-1.8-12.7 3.5zM1527 499.3c0 12.2 0 12.4 2.8 14.9 3.3 3.2 6.3 4.7 8 4.1 1.7-.6 1.5-3.2-.3-3.9-.8-.4-1.5-1.2-1.5-2 0-.7-.9-2.9-2-4.9-1.4-2.4-2-5.4-2-9.5 0-6.8-1.3-11-3.5-11-1.3 0-1.5 1.9-1.5 12.3zM32.5 497.3c-.8 3.9.8 7.7 3.1 7.7s1.6-10.4-.8-10.8c-1.2-.2-1.9.6-2.3 3.1zM1136.5 504.8c-7.2 4.1-10.4 6.4-10.9 7.7-.3.8-1.5 1.5-2.6 1.5s-2 .4-2 .9c0 .8-9.5 7.1-10.7 7.1-.3 0-2.1 1.1-3.9 2.5-1.8 1.4-3.9 2.5-4.7 2.5-.8 0-4.5-2-8.1-4.5-3.7-2.5-7.3-4.5-8-4.5-.8 0-2.5.9-3.9 2s-2.9 2-3.4 2-1.9 1.8-3.1 4.1c-2.3 4.3-3.1 14.2-1.2 15.4.6.3 1 3.6 1 7.3 0 3.7.7 8.5 1.4 10.7 1.2 3.5 1.9 4.1 5.7 5.2 2.4.6 5.8 1.2 7.4 1.3 2.4.1 4 1.4 7.8 6 2.6 3.3 4.7 6.6 4.7 7.4 0 .7.7 1.6 1.5 1.9.8.3 2.3 2.7 3.5 5.2 1.2 2.5 2.7 4.9 3.5 5.2.8.3 1.5 1.6 1.5 2.9 0 1.2.6 2.7 1.3 3.1.7.4 2.8 3.9 4.6 7.8 1.9 3.8 3.7 7.2 4 7.5 2.5 1.8 4.1 6 4.1 10.6 0 8.2 4.9 17.1 12.1 21.8 4.6 3.1 14.4 4.3 20.6 2.7 4.5-1.2 9.3-6 10.4-10.3.6-2.7 2.5-2.7 8.9-.2 3.8 1.5 8.3 1.8 30 2.1 24.1.2 34 1.3 34 3.5 0 .4 1.8.8 4 .8 4.3 0 13.4 1.6 16.5 3 2.6 1.1 10.6 2.2 17.5 2.4l5.5.1.3-3.3.3-3.2h-5.7c-4 0-6.3-.5-7.6-1.7-1.4-1.2-4.5-1.9-11.3-2.3-5.1-.3-10-1.2-10.8-1.9-.9-.7-5.1-1.6-9.4-2.2-4.3-.5-10.9-1.4-14.8-2.1-4-.7-17.2-1.2-31.1-1.2l-24.2-.1-.5-5.9c-.6-6.7-.4-7.8 2.2-9.1 7.5-4 10.1-5.7 10.1-6.5 0-.6 1-1.4 2.3-1.9 1.2-.5 4.4-2.5 7-4.5 2.6-2 5.2-3.6 5.7-3.6s1.5-.9 2.2-2c.7-1.1 1.8-2 2.5-2s1.8-.9 2.5-2 1.9-2 2.6-2c.6 0 2-.9 2.9-2 1-1.1 2.3-2 2.9-2 1.7 0 2.4-3.6 1-5.5-1-1.4-1.5-1.4-4.6-.1-1.9.8-5.2 3.1-7.3 5-2.1 2-4.2 3.6-4.7 3.6-.6 0-1.5.9-2.2 2-.7 1.1-1.7 2-2.3 2-.5 0-2.4 1.3-4 2.9-1.7 1.5-4.9 4-7 5.5-2.2 1.4-6 4-8.5 5.6-5.1 3.5-8 3.8-8.7 1-.3-1.1-1.2-2-2-2s-2.6-.9-4-2c-3-2.3-8-2.6-10.8-.6-1.1.7-3.2 1.6-4.7 2-1.6.3-2.8 1.3-2.8 2.1s-.5 1.5-1.1 1.5c-.6 0-.9 1.9-.7 4.7.3 4.1.6 4.8 2.6 5.1 1.7.3 2.2-.1 2.2-2 0-5.1 5.9-8.6 12.5-7.4 4.1.8 4.6 3.2 1.4 5.9-3.1 2.7-2.1 5.1 2.4 5.5l3.7.3v6c0 3.3-.4 5.9-1 5.9-.5 0-1 .7-1 1.4 0 2.3-6.3 6.6-9.6 6.6-3.2 0-8.4-2-8.4-3.3 0-.4-.5-.7-1.1-.7-.6 0-2.9-1.9-5-4.3-3-3.3-3.8-5-3.9-8 0-2.6.4-3.7 1.5-3.7 1.6 0 2.5-2.9 2.3-7.5-.1-1.7.2-3.8.6-4.7 1.3-2.8-2.2-3.5-4-.9-1.6 2.2-4.4 2.9-4.4 1 0-.6-1.1-2.4-2.5-4.1-1.4-1.6-2.5-3.8-2.5-4.9 0-1-.4-1.9-.9-1.9s-1.4-1.5-2.2-3.3c-.7-1.7-2.1-3.9-3.1-4.8-1-.9-1.8-2.6-1.8-3.7 0-1.2-.8-2.7-1.8-3.4-.9-.7-2.3-2.4-3-3.8-1.3-2.6-4.7-7.6-8-12-3.6-4.7-3.7-6.9-.4-10.4 5-5.3 6.6-14 4-21.3-1.4-3.7-.6-5.9 2.8-7.7 1-.6 3.1-1.9 4.6-2.9 1.4-.9 3.3-1.7 4.2-1.7.9 0 1.6-.5 1.6-1 0-.6.8-1 1.8-1 .9 0 2.3-.9 3-2 .7-1.1 2.1-2 3.2-2 1 0 2.4-.9 3-2 .6-1.1 2.1-2.2 3.5-2.6 1.3-.3 2.6-1.2 2.9-1.9.2-.7 1.8-1.6 3.4-2 3.7-.8 4.8-3.2 2.6-5.6-2.1-2.3-4-2.3-7.9-.1zm-43.4 23.9c8 8.6 10.3 14.5 8.3 21.9-.7 2.5-5.3 5.4-8.7 5.4-1.4 0-2.9.4-3.2 1-1.1 1.8-5.3 1.1-6.9-1.2-2.4-3.4-1.7-19.2.8-18.2 1.7.6 5-2.1 4.2-3.4-1-1.7-6.3-1.5-7 .3-.3.8-1.1 1.5-1.7 1.5-1.6 0-.3-6.2 1.6-7.3.8-.4 1.5-1.5 1.5-2.2 0-1.1 1.1-1.5 3.8-1.5 3.1 0 4.4.7 7.3 3.7zM221.8 506.1c-1.6.9-1.8 3.2-1.8 24.9 0 22.8.1 24 2 25 1.1.6 3 .8 4.2.5 2.2-.6 3.3-2.7 7.9-14.3.5-1.2 1.2-2.2 1.7-2.2.8 0 3.2 10 3.2 13.6 0 1.1 1.3 2.7 3.1 3.8l3.2 1.9 3.3-3.9c1.9-2.2 3.3-5 3.4-6.5 0-1.4.9-3.4 2-4.4 1.1-1 2-2.6 2-3.5 0-.9.9-2.5 2-3.5s2-2.6 2-3.7c0-1 1.9-3.7 4.2-6 3.2-3.2 3.9-4.4 3.1-5.7-2.5-4-9-.3-12.5 7.2-1 2-2.2 3.7-2.8 3.7-.5 0-1 .9-1 2s-.4 2-.9 2-1.5 1.6-2.2 3.5c-.7 1.9-1.8 3.5-2.4 3.5-1.5 0-3.4-13.4-2.5-17.6.5-2 1.8-4.6 2.9-5.8 2.3-2.5 2.8-6.2.9-6.8-.7-.3-4-.2-7.3.1l-6 .6v6.5c0 4.9-.6 7.6-2.4 11a50.9 50.9 0 00-3.1 7c-.6 1.8-.9.5-1-4.5-.1-3.9-.3-7.5-.5-8-.1-.6-.3-4.9-.3-9.6-.2-9.4-1.5-12.5-4.4-10.8zM364.7 509.6l-2.7 1.5V527c0 10-.4 16-1 16-1.8 0-1.1 3.5 1.2 5.9 1.9 2.1 2.7 2.3 8.1 1.7 3.2-.3 7.1-1.3 8.6-2.1 1.4-.8 3.4-1.7 4.4-2.1 2.4-.9 3.1-4.4 2.3-13.2-.4-5.6-1.1-8.1-2.6-9.7-1.1-1.2-2-2.5-2-3.1 0-1.6-8.4-10.2-11-11.2-1.9-.7-3.3-.6-5.3.4zM374 524c2 1.8 5.4 11.9 4.8 14.6-.2 1-1.2 2-2.3 2.3-1.1.2-3.1 1.2-4.4 2.2-3 2.4-3.9 1.7-2.1-1.6.9-1.7 1.1-4.5.7-9.2-.5-6.8.2-14.2 1.1-11.3.3.8 1.3 2.1 2.2 3zM320.3 514c-1.3.5-2.3 1.5-2.3 2.2 0 .7-.9 1.9-2 2.6-1.8 1.1-2 2.4-2.1 10.5 0 5-.4 11.4-.8 14.2-.7 5.2.8 9.5 3.4 9.5 3 0 4.3-3.7 5.5-16.5 1.7-16.9 3.5-19.3 10-13.7 4.7 4.2 4 6.2-3.2 9.1-2.3.9-2.8 1.7-2.8 4.4 0 2.2.8 4.1 2.3 5.4 1.2 1.2 4.2 4.4 6.6 7.2 4.8 5.6 7.8 6.4 11.9 3.3l2.3-1.8-2.1-2.7c-1.2-1.5-2.9-2.7-3.8-2.7-1.9 0-7.2-4.9-7.2-6.7 0-.7 1-1.8 2.3-2.4 1.2-.7 2.5-1.7 2.9-2.3 1.4-2 .9-9.4-.7-11-.8-.8-1.5-1.8-1.5-2.3-.1-.4-1.1-2.1-2.4-3.6-2-2.4-3.2-2.9-8.2-3.3-3.2-.2-6.9 0-8.1.6zM952 516.3c0 1.3-.9 3.6-2.1 5.1-2.5 3.1-2 6.5 1.2 8.4 2.7 1.7 3.3 1 4.9-5.9 1.5-6.9 1.1-9.3-1.8-9.7-1.8-.3-2.2.1-2.2 2.1zM282.9 519.7c-.8 1-3 2.5-4.9 3.3-5.1 1.9-6 3.6-6 11 0 7.9 1.4 11.2 7.1 16.4 3.5 3.3 4.7 3.8 9.1 3.9 4.6.1 5.3-.2 7.9-3.4 1.6-1.9 3.1-4.5 3.5-5.9.3-1.4 1.2-5.1 2-8.4.9-3.2 1.3-7.3.9-9-1.3-6.7-16.2-12.7-19.6-7.9zm11.1 7.7c1.7 3.3 0 13.6-3 17.6-1.6 2.2-2 2.2-4.9 1-3.3-1.3-7.1-5.8-7.1-8.2 0-.8.9-2.4 2-3.6 1.1-1.2 2-2.7 2-3.4 0-5.5 8.5-8.1 11-3.4zM633.3 519.2c-1.3.6-2.3 1.4-2.3 1.8 0 .4-1.1 1.9-2.5 3.4-2.1 2.2-2.5 3.7-2.5 8.4 0 6.5.4 7.3 5 10.7 2.6 1.9 4.6 2.5 8.6 2.5 4.9 0 5.4-.3 8.3-3.9 3.7-4.7 3.3-7.7-.8-6.6-1.4.4-4.7.9-7.3 1.2-3.8.4-4.8.2-5.7-1.4-1.5-2.9.6-10.3 3-10.3 1 0 2.1.4 2.4 1 1 1.6 3.9 1.1 5.2-.9 1-1.6.9-2.4-.8-4.5-2.2-2.8-6.5-3.4-10.6-1.4zM667.6 522.9c-.4.6-1.7 1.1-2.9 1.1-1.3 0-3.3.7-4.5 1.6-1.9 1.3-2.2 2.4-2.2 8.8 0 6.6.2 7.5 2.8 9.9 4 3.8 11 4.7 14.9 1.9 3.5-2.5 5.7-8.7 4.8-13.6-1.1-5.7-10.9-13-12.9-9.7zm2.8 6.7c.9.3 1.6 1.2 1.6 2s.5 1.4 1 1.4c1.9 0 1 4.9-1.2 6.5-2.2 1.5-2.4 1.4-4-.6-2-2.4-2.3-5.1-.8-8 1.2-2.1 1.2-2.1 3.4-1.3z" fill="#222020"/><path d="M1166 524c-1.1 1.1-2 3.3-2 4.9 0 1.7-.4 3.2-.9 3.5-.5.3-1.1 2.3-1.4 4.3-.3 2.1-1.1 6-1.7 8.8-.6 2.7-1.3 6.1-1.6 7.5-.4 2 .1 2.9 2.5 4.3l3 1.8 1.4-2.8c1.4-3 3-8.3 4.4-14.8.7-3.7 1.1-4 4.3-4.3 1.9-.2 4.4-1.1 5.5-2.1 4.2-3.8 8.2-2.9 6.4 1.4-.4 1.1-.8 3.5-.8 5.2-.1 1.8-.5 3.3-1.1 3.3-.5 0-1 .8-1 1.8 0 2.1 6.6 9.2 8.6 9.2 2.4 0 3.3-3.3 1.8-6.9-.9-2.1-1.4-7-1.4-13.6 0-9.8-.1-10.3-2.5-11.9-3.2-2.1-5.3-2-9.3.4-4.1 2.5-5.4 2.5-7.7 0-1-1.1-2.4-2-3.2-2-.7 0-2.2.9-3.3 2zM715.6 523.8c-1.1.2-1.6 1.4-1.6 3.8 0 1.8-.5 5.4-1.2 7.8-1.1 4-1 4.7.7 6.6 1 1.1 2.3 2 2.8 2 .6 0 1.8.6 2.6 1.3 2.5 2.1 9.6 4 11.9 3.3 1.2-.4 2.4-1.5 2.7-2.6.3-1 1.2-2.1 2-2.4 1.1-.4 1.5.3 1.5 2.9 0 3 .3 3.5 2.4 3.5 3.7 0 4.7-2.1 4.4-9.7l-.3-6.8-4.7-.3c-4.5-.3-5-.6-7.3-4.7-2.5-4.2-2.7-4.3-8.4-4.7-3.2-.1-6.6-.2-7.5 0zm11.7 12.7c2.3 3.3 1.5 4.5-2.9 4.1-4.3-.4-4.9-.9-2.9-2.6.8-.7 1.5-1.9 1.5-2.6 0-2.2 2.3-1.6 4.3 1.1zM685.1 526.1c-1.4 1.5-2.1 3.6-2.1 6.3 0 2.2-.5 5.4-1.2 7.2-2.1 5.9 3.1 8.8 7 3.9l2-2.5 1.6 2.5c2.2 3.3 9.6 3.3 9.6 0 0-.7.6-1.5 1.3-1.8.8-.3 2.6-3.1 4.2-6.3 2.7-5.5 2.7-5.8 1-7.1-1.1-.7-2.4-1.3-3.1-1.3-1.6 0-4.4 2.8-4.4 4.4 0 .8-.6 1.9-1.4 2.5-1.8 1.5-2.8 0-3.6-5.4-.5-3.9-.6-4-4.7-4.3-3.2-.2-4.6.2-6.2 1.9zM1245.5 526.5c-3.5 2.1-4.1 3.1-4.8 7.2-2 12.1-2 11.7.7 14.5 1.3 1.5 2 3 1.5 3.3-.5.4-.9 1.5-.9 2.6 0 1.7.7 1.9 8.8 1.9 11.8-.1 12.2-.4 12.2-11.4 0-7.3-.3-8.9-2-10.6-1.1-1.1-2-2.7-2-3.5 0-2.4-4.6-6.5-7.2-6.5-1.3 0-4.1 1.2-6.3 2.5zm9.3 13.8c2.1 6.9 1.5 8.1-4.1 8.5-2.6.2-4.7-.1-4.7-.5 0-1.5 2.5-6.3 3.3-6.3.4 0 .7-1.1.7-2.4 0-7 2.7-6.5 4.8.7zM745.7 527.6c-.4.4-.7 1.8-.7 3.1 0 1.6.6 2.3 2 2.3 1.8 0 2 .7 2 8.8 0 5.8.5 9.4 1.4 10.7 2.9 4 7.6-2.1 5.7-7.6-1.4-4.1 0-8.3 3-8.7 1.3-.2 3-.9 3.7-1.4.9-.8 1.2.7 1.2 6.9 0 7.1.3 8.2 2.4 10.2 2 1.9 2.8 2.1 4.5 1.2 2.2-1.2 2.9-5.8 1.2-7.7-.5-.5-1.1-2.7-1.4-4.9-.3-2.2-.9-5.8-1.4-7.9l-.8-3.9-7-.2c-3.9-.1-8.8-.5-11-.9-2.2-.4-4.4-.4-4.8 0zM1219 528.2c-1.9.5-4.2 1.7-5.2 2.6-.9 1-3 2.8-4.7 4.1-3 2.2-3.1 2.6-3.1 9.5v7.2l3.9 2.2c5.1 2.9 11 2.9 14 0 2.5-2.3 6.4-10.3 7.6-15.6 1-4.6-1-8.8-4.7-10.1-3.5-1.2-3.1-1.3-7.8.1zm3.5 12.9c-.4 2.2-1.3 4.3-2.1 4.6-.8.3-1.4 1.1-1.4 1.9 0 2.7-4.4 1.5-6.2-1.6-1.7-2.9-1.7-3.1 1-5.8 1.4-1.5 3.8-3.5 5.2-4.4 2.2-1.5 2.6-1.6 3.3-.2.5.8.6 3.3.2 5.5zM787 528.7c-4.3 1.6-6 4.6-6 10.5 0 4.9.4 6.3 2.5 8.3 1.3 1.4 3.6 2.5 5 2.5 3.1 0 7.5-2.7 7.5-4.6 0-.8.9-1.9 2-2.6 1.4-.9 2-2.4 2-5 0-6.5-6.9-11.3-13-9.1zm5.7 8c.8 2-3.1 5.5-5.2 4.6-2.2-.8-1.8-3 .7-4.7 2.8-2 3.7-2 4.5.1zM835.5 528.8c-2.2 1.5-4.5 6.3-4.5 9.2 0 1.7.9 4.9 2.1 7.2l2.1 4.1-2.2 1.7c-1.4 1.1-2.1 2.5-1.8 4.1.2 2 .9 2.5 4.1 2.7 2 .2 3.7.7 3.7 1.3 0 1.9 3.8.8 5.4-1.7 1.6-2.4 1.6-2.8-.5-7.5-1.3-2.7-2.6-4.9-3.1-4.9-.4 0-.8-1.1-.8-2.5 0-1.6.6-2.5 1.5-2.5 1.9 0 4-4.3 3.2-6.4-.6-1.4-6.4-5.6-7.7-5.6-.3 0-1 .4-1.5.8zM1276.6 532.4c-.4 1.9-1.3 3.9-2.1 4.6-.8.7-1.5 2.7-1.5 4.6 0 1.8-.4 3.5-.9 3.9-.5.3-1.2 1.8-1.5 3.3-1 4.4 2.5 10 8.3 13.3 7.3 4.2 11 3.8 13-1.3 1.3-3.5-.8-5.8-5.3-5.8-3.9 0-8.6-2-8.6-3.8 0-1.4 2.6-1.6 3.5-.2 1.1 1.7 6.6 1.1 9.6-1.1 3.4-2.4 3.6-3.8.9-7.1-2.4-3.2-1.9-3.7 3.3-3.1 5.3.6 8.8-1.6 7.1-4.4-.8-1.4-2.8-1.9-8-2.3-4.3-.3-7.8-1.2-9.4-2.3-1.3-.9-3.6-1.7-5.1-1.7-2.3 0-2.8.5-3.3 3.4zm8.9 8.3c2.4 3.3-.8 6-3.4 2.9-1.3-1.5-.5-4.6 1.1-4.6.6 0 1.6.8 2.3 1.7zM1310.1 533.3c-.8 1-.8 2.2-.2 3.9.6 1.6.5 3.4-.5 5.7-.8 1.8-1.4 4.1-1.4 5 0 .9-.9 2.7-2 4.1-1.4 1.8-2 4.1-2 8.2 0 6.7 1.1 7.8 10 9 3 .4 7 1 8.8 1.4 5.9 1.2 9-4.7 3.5-6.6a31 31 0 01-4.8-2.2c-1.1-.6-3.6-1.4-5.5-1.8-3.4-.5-3.5-.7-3.1-4.5.1-2.2 1.2-5.2 2.2-6.7 1.6-2.2 1.9-4.1 1.7-9.5-.3-6.5-.4-6.8-2.9-7.1-1.4-.2-3.1.3-3.8 1.1zM805.6 535.5c-.9 1.3-1.6 3.8-1.6 5.4 0 1.7-.7 5.1-1.6 7.6-1.6 4.9-1.2 8 1.1 8.9 2.4.9 4.3-.4 5.5-3.7.9-2.7 1.3-3 2.3-1.7 1.3 1.6 6.5 4.6 7 3.9.1-.2 1.2-1.8 2.5-3.6 1.2-1.8 2.2-4.3 2.2-5.5 0-1.3.9-2.9 2-3.6 2.5-1.5 2.7-5.8.3-6.4-3.2-.8-6.8.7-7.1 2.9-.5 3.2-3.2 3.8-3.2.8 0-1.3-.5-3.6-1.2-5-1.5-3.4-6-3.4-8.2 0zM1546.7 540.7c-.4.3-.7 3.2-.7 6.4s-.4 6.1-1 6.4c-1.4.8-1.3 13.2.1 14.1.6.3 1.8 2.2 2.6 4.2 1 2.4 1.8 3.1 2.5 2.4 1.5-1.5 2.7-8.8 1.7-10.4-.5-.7-.9-5.4-.9-10.3 0-5-.3-10-.6-11.3-.6-2.1-2.4-2.9-3.7-1.5zM574.6 543.2c-.3.7-.9 2.8-1.5 4.7-.6 1.9-1.1 5.6-1.1 8.2 0 4 .5 5.4 3 7.9 4.7 4.8 6.6 3.8 4.8-2.6-.6-2.1-1.2-6.6-1.3-9.9-.1-3.3-.3-6.8-.4-7.8-.1-1.9-3-2.3-3.5-.5zM34 551.6c-1.5 3.8-.9 7.8 1.3 8.2 1.4.3 1.7-.4 1.7-4.7 0-5.7-1.5-7.5-3-3.5zM444.4 564.5c-1 .8-2.9 1.5-4.1 1.5-5.3 0-5.3.1-5.3 16.5 0 18.6.9 21.5 7 21.5 5.1 0 6-1.7 6-11.4 0-4.6.4-7.6 1-7.6 1.2 0 5.8 2.8 7.9 4.8.7.7 2.6 1.6 4.2 1.9 1.5.3 3.6 1.4 4.5 2.4.9 1.1 2.4 1.9 3.3 1.9.9 0 2.7.9 4.1 2 1.4 1.1 3 2 3.6 2 .6 0 1.7.7 2.4 1.6.8.8 2.8 2.1 4.7 2.9 1.8.8 3.3 1.9 3.3 2.4 0 .6.7 1.1 1.5 1.1s1.9.9 2.5 2c.6 1.1 1.6 2 2.4 2 .7 0 2.2 1.1 3.4 2.5 1.2 1.4 2.6 2.5 3.2 2.5.5 0 1 .7 1 1.5 0 .9 1.1 2 2.4 2.4 1.2.5 3.8 2.9 5.7 5.3 1.9 2.4 4.2 5.2 5.1 6.2 1 1.1 1.8 2.7 1.8 3.6 0 1.5-.5 1.6-4.1.6-3.6-.9-4.2-.8-5.5.9-3 4-.4 10.5 4.2 10.5 1.4 0 3.6.8 5 1.7 1.4.9 4.7 2 7.2 2.5 2.6.5 5.8 1.1 7.2 1.4 1.7.4 3.2-.1 4.8-1.7 2.3-2.1 2.4-2.6 1.7-11.8-.9-14.4-.9-18 .3-19.3 1.6-2 .3-6.8-1.9-6.8-1 0-2.1.4-2.4 1-.3.5-2.5 1-4.7 1h-4.1l.7 3.7c1.9 11.2 1.9 12.3.2 12.3-.9 0-1.6-.4-1.6-.8 0-.5-.8-1.7-1.7-2.8-1-1.1-2.3-2.9-2.9-3.9-.6-1-2.5-2.6-4.2-3.4-1.7-.9-3.2-2.1-3.2-2.7 0-1.3-11-11.4-12.4-11.4-.5 0-1.6-.7-2.5-1.5-3.4-3.3-10.7-8.5-11.8-8.5-.7 0-1.3-.3-1.3-.8 0-.8.1-.8-15.4-8.7-6.5-3.3-12.7-6.4-13.7-7-1-.5-1.9-1.5-1.9-2.2 0-.9 2.1-1.3 7.3-1.3 6.5 0 7.6-.3 9.6-2.4 3.9-4.2 2.5-6-5.3-6.9-3.9-.4-8.3-1.6-10.1-2.7-3.8-2.4-6.4-2.5-9.1-.5zM660.7 571.8c-1.9.2-3.1 1.2-3.8 3-.6 1.5-2.2 4.8-3.5 7.3-4.7 9.2-2.2 19.2 3.1 12.5 1.9-2.4 2.6-2.6 4.3-1.7a11 11 0 004.4 1.1c2.9 0 4.8 1.7 4.8 4.3 0 1.4.6 1.8 2.6 1.5 2.2-.2 3.4-1.6 6.1-6.6 1.8-3.5 3.1-6.8 2.7-7.3-.3-.5-1.8-.9-3.5-.9-1.9 0-2.9-.5-2.9-1.5 0-.8-.9-1.9-2-2.5-1.1-.6-2-1.6-2-2.3-.1-1.6-4.2-6.2-6-6.8-.8-.3-2.8-.3-4.3-.1zm5.1 13c.2 1.4-.2 2.2-1.1 2.2-1.7 0-3-2.7-2.1-4.1.9-1.6 2.9-.4 3.2 1.9zM720 575c-.8.5-3.2 1-5.2 1s-3.9.4-4.3.9c-1.2 2-1 14.4.3 14.9.6.2 1.2 1.6 1.2 3.1 0 1.9.7 3.1 2.3 3.9 3.4 1.6 9.5 2.2 12.3 1.2 2.2-.9 2.4-1.5 2.4-7.7 0-5.2-.5-7.4-2-9.3-1.1-1.4-2-3.2-2-4.1 0-2.5-3.3-5-5-3.9zm2 14.5c0 1.9-.2 3.5-.5 3.5-.4 0-2.9-1.3-5.4-2.7-.2-.2.4-1.2 1.4-2.3 2.8-3.1 4.5-2.5 4.5 1.5zM686.3 576.7c-.8.3-1.3 2.3-1.3 4.8 0 2.4-.4 4.7-1 5-1.4.9-1.3 6.8.2 8.3 1.7 1.7 4.5 1.5 5.7-.6.9-1.6 1.1-1.6 3.9 0 2.9 1.7 3.1 1.7 5.6-.3 1.4-1.1 2.6-2.7 2.6-3.5 0-.7.9-1.9 2-2.6 1.5-1 2-2.4 2-6 0-6.1-1.6-6.2-6.4-.7-3.5 4.1-5.6 4.4-5.6.9 0-1-1.2-2.8-2.6-3.9-2.8-2.2-3.1-2.3-5.1-1.4zM929.7 577.6c-.4.4-.7 1.5-.7 2.4 0 1-.9 2.8-1.9 4.2-3.8 4.7-3.6 13.8.3 13.8 1.5 0 3.6-4.2 3.6-7.3 0-1.3.7-3.3 1.6-4.5 1.9-2.8 1.5-8.6-.6-9-.9-.1-1.9 0-2.3.4zM573.6 594.2c-1 1.3-1.6 4.3-1.6 7.5 0 4.4.4 5.4 2.3 6.4 1.2.7 2.6 1.8 3 2.5 1.1 2 3.7 1.7 3.8-.4.3-3.5-.3-5.4-2.2-7.3-1.2-1.2-1.9-3.3-1.9-5.8 0-4.8-1.3-5.9-3.4-2.9zM168.5 609.5c-11.6 1.9-13.7 2.9-13.3 6.3.3 2.3.7 2.7 3.3 2.6 1.7 0 4.3-.4 5.9-.9 2.5-.7 2.7-.6 1.8 1.1-.6 1.1-2.9 3.2-5.1 4.9-2.3 1.6-6 4.7-8.3 6.7-2.3 2.1-4.5 3.8-4.8 3.8-.4 0-3.9 3-7.7 6.7-8.9 8.5-9.9 9.4-14.3 11.7-1.9 1-3.7 2.2-4 2.6-.7.9-12.6 9.1-15.7 10.8-1.3.8-2.7 2-3 2.8-.3.8-1.6 1.4-2.8 1.4-2.2 0-2.3-.2-1.3-3.3.6-1.7 1.5-4.2 2.1-5.4.5-1.2.7-3.3.3-4.7-.5-2-1.3-2.6-3.5-2.6-2.4 0-3.2.7-4.8 4.2-1.1 2.4-2.3 6.8-2.6 9.7-.4 3.1-1.3 5.8-2.1 6.3-.7.4-1.7 2.3-2 4.1-.3 1.8-2 4.6-3.6 6.2-3.1 3-3.8 6.3-1.8 8.3 2.9 2.9 26.8-.6 26.8-4 0-.5 1.4-2.2 3.2-3.8 1.7-1.6 2.9-3.3 2.5-3.7-.4-.4-3.9-.2-7.8.5-8.5 1.5-11.9 1.5-11.9.2 0-.6 1-1 2.3-1 1.3 0 3.6-1.4 5.2-3 1.6-1.7 3.4-3 4.2-3 .7 0 1.7-.9 2.3-2 .6-1.1 1.7-2 2.4-2s2.1-.9 3.1-2 2.2-2 2.7-2c1.1 0 9-6.1 10.1-7.8.4-.6 1.5-1.2 2.3-1.2.8 0 1.7-.7 2-1.5.4-.8 2.2-2.3 4.2-3.2 1.9-.9 7.2-5.4 11.7-10 4.6-4.6 9-8.3 9.9-8.3.9 0 1.6-.4 1.6-.8 0-1 11.8-9.9 15.7-11.9 2.5-1.3 2.5-1.2 1.9 2-.4 1.7-.9 5.8-1.3 8.9-.5 4.9-.3 5.9 1.2 6.4 3.2 1.3 5-1 5.7-7.1.4-3.2 1.4-6.8 2.3-8.1 2.2-3.4 2-12.6-.3-14.7-2.1-1.9-3.5-1.9-14.7-.2zM34.2 611.3c-1.6 1.9-2.5 6.3-1.7 8.6.9 2.9 4.5 2.8 4.5-.2 0-1.2.3-3.9.6-6 .5-2.9.3-3.7-.8-3.7-.9 0-2 .6-2.6 1.3zM1385.1 614.9c-2.5 3.4-2.5 3.9-.8 7.7 1.1 2.3 1.2 6.4.5 20.3l-1 17.4 2.5 2.5c3.4 3.3 5.3 2.3 5.9-3.1.3-2.7 1.4-5.3 2.7-6.6 1.1-1.1 2.1-3.2 2.1-4.6 0-1.4.2-2.5.4-2.5 1.2 0 8.6 4.5 8.6 5.2 0 .4.6.8 1.3.8 2 0 7.3 2.8 8.7 4.5.7.8 1.8 1.5 2.6 1.5.7 0 2.5 1.1 4 2.5s3 2.5 3.3 2.5c.4 0 2.6 1.8 4.9 4 2.2 2.2 4.3 4 4.6 4 .2 0 1.9 1.4 3.7 3.1 1.9 1.8 4.8 3.8 6.6 4.5 1.8.8 3.6 2 4 2.7.4.6 2.5 2.1 4.5 3.2 4.9 2.5 3.4 4.5-3.3 4.5-4.3 0-4.9.3-5.5 2.4-.3 1.4-.4 3.3-.2 4.3.5 2.7 6.1 2.9 9.7.4 1.6-1.2 3.4-2.1 4.1-2.1 2.5 0 19.6-5.3 21-6.5.8-.7 2.4-1.5 3.5-1.7 1.3-.2 2.1-1.2 2.3-3 .3-2.2-.8-3.9-5.3-8.4-3.1-3.2-6.2-6.9-7-8.4-1.6-3.1-8.6-8-11.5-8-1.7 0-2 .7-2 4.3 0 4.2 2.1 8.7 4.1 8.7 1.4 0 6.9 5.5 6.9 6.9 0 3.1-8.4 2.3-14.2-1.5-2.1-1.3-4.1-2.4-4.6-2.4-.4 0-1.5-.8-2.4-1.8-.9-.9-3.3-2.8-5.3-4.2-2-1.4-5.5-4.2-7.8-6.2-2.3-2.1-4.7-3.8-5.4-3.8-.6 0-1.8-.8-2.5-1.8-.7-1.1-3.1-2.7-5.3-3.8-8.2-3.9-19.8-12.3-24.6-18-6.7-8-8-12.7-2.5-9 1.4.9 3.2 1.6 4 1.6.8 0 1.6.5 1.8 1.1.2.6 2.2 1.2 4.3 1.3 3.9.1 4 0 4.3-3.5.3-3.4.1-3.6-4-4.9-2.4-.8-6.2-2.7-8.4-4.2-2.3-1.6-4.7-2.8-5.3-2.8-.6 0-1.1-.5-1.1-1 0-2.3-4.9-.9-6.9 1.9zM660.8 615.3c-2.1.8-2.8 1.9-3.3 5.4-.8 5.4.3 14.9 2.1 18.5 2 3.9 1.9 4.1-3.3 3.5-5.1-.5-8.3.5-8.3 2.7 0 1.9 4.4 4.6 7.4 4.6 1.4 0 2.8.4 3.1 1 .3.5 2.4 1 4.5 1 3 0 4.3-.6 5.9-2.6 2-2.6 2-2.6.1-6.5-1.1-2.1-2-5.6-2-7.9 0-2.2-.4-4-1-4-.5 0-1-.9-1-1.9 0-1.1-.4-2.3-1-2.6-1.5-1-1.2-3.5.5-3.5.8 0 1.5.9 1.5 2 0 1.5.7 2 2.5 2 2.3 0 2.5-.3 2.5-5 0-4.8-.1-5-3.6-6.5-2-.8-3.7-1.5-3.8-1.4 0 .1-1.3.6-2.8 1.2zM1543.4 616.7c-.4 1.6-1.3 3.9-2.1 5.2-1.7 2.7-2.9 12.7-1.9 16.5.7 3 4 3.6 5.1.8 1.4-3.3 3.5-15.7 3.5-20.5 0-4-.3-4.7-2-4.7-1.3 0-2.2.9-2.6 2.7zM683.2 621.5c-1.2.9-2.2 2-2.2 2.5s-1.3 3.9-3 7.5c-4.2 9.1-4.8 13.7-2.3 17.1 2.7 3.7 9.2 5.3 15.3 3.8 4.4-1 4.5-1.2 4.5-5 0-3.3-.3-3.9-2.4-4.2-1.3-.2-2.8.1-3.4.7-1.6 1.6-5.4 1.3-6.1-.5-1.2-3-.6-3.4 5.7-3.4 3.4 0 6.7-.4 7.4-.8.6-.4 1.3-2.5 1.5-4.7.2-3.3.8-4.1 3.1-4.9 4.3-1.5 6.1.2 6.5 6 .2 2.6-.2 5.8-.8 6.9-.6 1.2-1 3.7-.8 5.6.3 3 .7 3.4 3.5 3.7 4.4.4 5.5-2 5.2-11.9-.1-4.4 0-8.1.2-8.3.2-.2 1.9-.6 3.7-.9l3.2-.7v9.4c0 11.4.4 12.6 4.1 12.6h2.8l.3-10.3.3-10.2 3.8-.3 3.7-.3v7.4c0 7.6 1.5 10.7 5.1 10.7 3.2 0 5.5-5.9 2.9-7.5-.5-.3-1-3.5-1-7.1 0-9.5-1.3-11-10.2-11.8-3.9-.3-7.7-1.1-8.4-1.7-.9-.7-2.2-.6-4.4.6-3.3 1.7-10.4 1.4-14.8-.8-1.8-.8-2.9-.7-5.1.6-2.2 1.3-3.8 1.5-7.7.8-2.7-.5-5.6-1.1-6.4-1.5-.8-.3-2.5.1-3.8.9zm9.8 8.4c0 1.7-2.9 3.3-5 2.6-3.4-1.1-2.4-3.5 1.5-3.5 1.9 0 3.5.4 3.5.9zM752 626.5c-3 6.6-3.9 13.6-2.1 16.3.4.8 1.9 1.2 3.2 1 1.8-.2 2.5-1.2 3.2-4.1.7-3.1 1.2-3.6 2.3-2.6.8.6 1.4 2.2 1.4 3.5 0 2.6 3.8 4.8 6.4 3.8 2.2-.8 6.6-10.3 6.6-14.1 0-1.8.5-3.3 1-3.3 1.3 0 1.3-3.7-.1-4.5-1.8-1.2-5.6.4-6.4 2.7-.5 1.3-1.1 3.2-1.4 4.3-.7 2-.7 2-2.6-.2-1-1.2-2.4-3.7-2.9-5.5-.8-2.3-1.8-3.4-3.4-3.6-1.9-.3-2.7.7-5.2 6.3zM779.1 624.1c-2.8 3.8-3.1 4.9-3.1 11.5v7.2l4.2 3.6c3.9 3.4 7.8 4.7 7.8 2.7 0-.5.9-1.1 2-1.4 1.7-.4 2-1.4 2-6.1 0-5.2-.2-5.7-2.7-6.7-1.6-.6-3.8-.8-5-.6-3.6.7-2.7-1.8 1.7-4.7 5.7-3.8 5.2-7.5-1.2-9.1-2.3-.6-3.1-.1-5.7 3.6zM801.2 622.2c-1.8 1.8-1.4 10.8.6 16.9 2.4 6.9 2 8.3-1.8 6.1-2.7-1.6-3-1.6-4.6 0a3.98 3.98 0 00-1 4.2c.5 2.2 1.2 2.6 4.1 2.6 1.8 0 3.7.4 4 1 1.2 2 7.3 1.1 8.9-1.2 2.2-3.1 2-4.7-1.1-12.3-2.1-5-2.4-6.8-1.5-7.7.9-.9 1.5-.9 2.4 0 1.7 1.7 4.5 1.5 5.2-.4 1.5-4 .6-7.3-2.4-8.9-3.5-1.8-11.1-2-12.8-.3zM925 635.4c0 1-1.1 2.9-2.6 4.2-2.1 2-2.5 3.1-2.2 7.2.3 4.2.5 4.7 2.8 4.7 2 0 2.6-.7 3.2-3.5 1.2-5.2 1.1-12.1-.1-13.3-.8-.8-1.1-.6-1.1.7zM1060.3 634.6c-1.3.3-2.3.9-2.3 1.3 0 1.3-4.9 3.1-8.4 3.1-4.6 0-5.4 3.1-1.8 6.5 3.2 3 4.6 3.1 9.7.5 3.1-1.6 4.1-1.7 5.3-.7 1.3 1 1.1 1.2-1.2 1.5-1.7.2-3 1.1-3.3 2.1-.2 1-3.8 4.6-7.9 8-4.1 3.5-7.4 6.6-7.4 7 0 .4-3.6 3.3-7.9 6.5-4.4 3.2-8.2 6.4-8.5 7.2-.3.8-1.2 1.4-2.1 1.4-.8 0-1.5.6-1.5 1.4 0 .8-1.4 2.2-3.2 3-3.8 2-4.8 2-4.8.2 0-.8-1.2-3.3-2.7-5.5-2.6-4-2.8-4.1-8.4-4.1-7 0-7.9 1-8.6 9-.3 3.3-1 6.3-1.4 6.6-1.3.7-1.1 4.1.3 6.3.9 1.5.7 2.9-1 7.1-1.2 2.9-2.2 6.8-2.2 8.6 0 1.8-.4 3.6-1 3.9-1.2.8-1.3 6.2-.1 6.9.4.3 1.1 2 1.5 3.7.6 2.9.8 3.1 3.8 2.4 1.8-.4 7.5-.9 12.5-1.2 10.2-.5 12.3-1.8 12.3-7.4 0-1.5.7-2.9 1.5-3.3.9-.3 1.5-1.8 1.5-3.6 0-3.6-2.7-4.1-5.4-1.1-2.5 2.8-14.7 4.3-17 2.1-1.2-1.2 2.6-6.9 6.9-10.4 1.9-1.6 3.5-3.5 3.5-4.3 0-.7.5-1.3 1.1-1.3.5 0 4.1-2.7 7.9-6 3.9-3.3 8.4-6.7 10.2-7.6 1.8-.9 4.9-3.3 6.8-5.4 1.9-2 4.3-4 5.3-4.3.9-.4 1.7-1.2 1.7-1.9s1.7-2.4 3.7-3.8c1.9-1.4 4.6-3.5 5.8-4.8 1.2-1.2 2.7-2.2 3.4-2.2 1.5 0 1.4 6.5-.1 9-1.1 1.7-.9 2.3.9 4.1 1.9 2 2.4 2 5.2.8 2.3-1 3.4-2.4 4.2-5.2.5-2 1.4-3.7 1.9-3.7s1.6-1.5 2.5-3.3c.8-1.7 1.9-3.9 2.5-4.7.5-.8 2.6-4.4 4.6-7.9 2.9-5.1 3.5-7 3-9.9-.3-2-1.2-4.2-1.9-5-1.5-1.4-15.1-2.5-19.4-1.6zM1014 687c0 1.1-.7 2-1.5 2-2.7 0-1.8-3 1.3-3.9.1-.1.2.8.2 1.9zM578.5 648.7c-2.3 2.2-1.6 8.7.9 9.1 2.4.5 3.6-1.4 3.6-5.9 0-4.2-2.1-5.7-4.5-3.2zM27.6 669.4c-1.9 3.6-1.3 8.5 1.2 9.4 1.7.5 4.4-5.5 4-9.1-.4-4.4-2.9-4.5-5.2-.3zM1532 667.9c-.5 1.1-1 3.8-1 6s-.5 5.2-1 6.7c-1.1 2.9-.4 8.4 1 8.4.5 0 1.8-.9 2.9-2.1 1.5-1.7 2-3.8 2.3-10.1.3-7.7-.3-10.8-2.2-10.8-.5 0-1.4.9-2 1.9zM557.2 684.2c-.7.7-1.2 2.2-1.2 3.5 0 1.9.5 2.3 3 2.3 2.3 0 3.1-.5 3.6-2.4.3-1.4.3-3-.1-3.5-.8-1.5-3.8-1.4-5.3.1zM928.6 685.9c-.3 1.7-.9 4.5-1.2 6.1-1.2 5.6 4.2 13.1 6 8.4.7-1.9.6-9.9-.3-13.9-.9-4.1-3.7-4.5-4.5-.6zM31 705.5c-1.1 1.3-1 2.2.3 5 1.7 3.5 5.2 5.3 8.2 4.1 1.8-.7 2-4.6.2-4.6-.7 0-2.3-1.4-3.5-3-2.6-3.4-3.4-3.6-5.2-1.5zM1040.3 705.7c-.7.2-1.3.9-1.3 1.4 0 .5-1.8 2.5-3.9 4.4-3 2.8-4 4.5-4.5 7.8-.3 2.3-.8 5.8-1.1 7.8-.8 4.4 1.5 7 4.6 5.1 1-.7 2.6-1.2 3.4-1.2 2.2 0 2 8.8-.5 15.2-1.1 2.9-2 6-2 6.9 0 .9-.9 2.4-2 3.4s-2 3-2 4.4c0 1.4-.9 3.7-2 5.1-1.1 1.4-2 3.3-2 4.2 0 1-.8 2.2-1.9 2.7-1 .6-2.2 2.2-2.5 3.5-.3 1.4-1.6 3.6-2.9 4.8-1.2 1.3-5.5 6-9.6 10.6-4.1 4.5-7.8 8.2-8.3 8.2-.4 0-1.7.8-2.7 1.7-3.5 3.2-5 4.3-5.8 4.3-.4 0-2.1 1.1-3.8 2.4-3 2.4-3 2.4-1.1 4.5 2.6 2.8 3.7 2.7 9-1.4 2.6-1.9 5-3.5 5.4-3.5 1.1 0 9.9-8.6 17.4-16.9l5.6-6.2.7 3c.3 1.6 1.4 3.2 2.3 3.5 4.9 1.4 9.3 1.6 13 .7 5.6-1.6 4.6-3.7-2.1-4.6-2.9-.4-6.4-1.6-7.9-2.6-1.4-1.1-3.1-1.9-3.8-1.9-1.3 0-.3-4.3 1.2-4.9.5-.2 1.8-2.2 2.9-4.5 1-2.2 2.3-4.8 2.8-5.6 1-1.8 2.5-5.2 4.1-10 1.6-4.6 2.5-6.9 3.8-10 .7-1.4 1.3-5.2 1.4-8.5.3-5.5.5-6.1 3.7-8.2 1.9-1.3 4.4-2.3 5.7-2.3 1.3 0 2.6-.4 2.9-1 .9-1.4-2.9-7.1-8.2-12.2a7.25 7.25 0 01-2.3-5.4c0-2.3-.6-3.7-1.9-4.4-1.1-.5-2.1-1-2.3-.9-.2 0-.9.3-1.5.6zM528.5 718c-.4 1.2-1.5 2-2.8 2-2.8.1-7.2 3.4-6.3 4.8.9 1.5 6.4.4 10.1-2.1 5.8-3.9 6.7-6.7 2-6.7-1.5 0-2.6.7-3 2zM1515.1 721.7c-1.7 2.5-3.1 5.4-3.1 6.3 0 .9-.5 2.1-1 2.6-.6.6-.8 1.8-.4 2.7.4 1.2 1.3 1.5 3.3 1.1 3.9-1 4.1-1.2 4.1-4.8 0-1.9.7-3.9 1.5-4.6 1.9-1.6 2-8 .1-8-.8 0-2.8 2.1-4.5 4.7zM61.1 726.4c-1 1.2-.8 1.7.8 2.6 1.2.6 2.1 1.7 2.1 2.5s.6 1.5 1.4 1.5c.7 0 1.9.7 2.6 1.5 1.4 1.7 8.5 2.1 9.5.5 1.1-1.8-1.5-4.8-4.7-5.5-1.8-.4-4.8-1.6-6.6-2.6-4-2.3-3.7-2.2-5.1-.5zM941.7 730.6c-.4.4-.7 2.8-.7 5.3 0 4.1.4 5 4.2 8.4 2.6 2.4 4.9 3.7 6.2 3.5 3.2-.5 2.2-4.5-1.9-8.2-1.9-1.8-3.5-3.7-3.5-4.2-.1-1.6-3.5-5.5-4.3-4.8zM273.5 736c-2.4 2.6-3.6 3-7.9 3-3.4 0-5.9.7-7.6 1.9l-2.4 1.9 3.5.7c2 .4 4.2.5 5 .4.8-.2 2.7 0 4.3.4 2.3.7 3.9.1 8.7-3 4.2-2.7 5.8-4.4 5.9-6.1 0-3.5-5.8-3.1-9.5.8zM491.3 735.1c-4.7 2.1-5.3 3.5-2.5 5.5 2.4 1.9 3.5 1.7 7.6-.9 2.3-1.4 3.5-3 3.6-4.5 0-2.8-2.8-2.8-8.7-.1zM349 737c-1.3.9-1.2 1.3.9 3 2.8 2.4 4.8 2.5 8.9.4 4.3-2.1 4-3.4-.5-3.4-2.1 0-4.7-.3-5.8-.5-1.1-.3-2.7-.1-3.5.5zM303 738.1c0 1.5 6.4 3.9 8.8 3.2 1.3-.3 2.2-1.3 2.2-2.4 0-1.6-.8-1.9-5.5-1.9-3.2 0-5.5.4-5.5 1.1zM389 738.4c0 .8.4 1.7.9 2 1 .7 2.3-1.9 1.4-2.8-1.1-1.1-2.3-.6-2.3.8zM397 739c-.9 1.8-.8 2 1.5 2 1.8 0 2.5-.5 2.5-2 0-1.1-.7-2-1.5-2s-1.9.9-2.5 2zM112.7 739.7c-.9.9 1.2 3.3 3 3.3.7 0 1.6.7 1.9 1.5.9 2.1 9.2 2.1 10.1-.1.9-2.4-1-3.5-6.6-3.8-2.8-.1-5.4-.6-5.8-.9-.8-.9-1.8-.9-2.6 0zM318.4 742.5c-.3.8-.3 1.8 0 2.3.9 1.5 10.3 2.2 13.6 1.1 2.5-.9 2.8-1.4 2-3-.9-1.6-2.2-1.9-8.1-1.9-5.2 0-7.1.4-7.5 1.5zM463.5 741.7c-1.6.3-3.6.9-4.2 1.5-1.8 1.5.3 4.8 3 4.8 3.2-.1 7.2-3.4 6.4-5.4-.4-.9-1-1.5-1.4-1.5-.4.1-2.1.4-3.8.6zM170.5 745.9c-.9 1.6 5.1 5.1 8.7 5.1 1.8 0 5.1-.5 7.3-1.1l3.9-1.1-2.3-1.9c-1.8-1.5-4-1.9-9.7-1.9-4 0-7.5.4-7.9.9zM380.5 746c-.8 1.3 2 2.4 4.1 1.6 2-.8.9-2.6-1.6-2.6-1 0-2.2.5-2.5 1zM214.5 749c-1.5 1.7-1.6 2.4-.7 4.5 1.2 2.6 3.1 3.1 6 1.6.9-.5 3.4-1.7 5.5-2.6 2.6-1.1 3.7-2.2 3.5-3.3-.2-1.3-1.7-1.8-6.4-2-5-.2-6.3.1-7.9 1.8zM1486.8 759.4c-1 .7-1.8 1.7-1.8 2.3 0 .5-1.8 2.2-4 3.9-3.8 2.8-5.1 5.6-3.1 6.9.5.3 1.2.1 1.6-.5.3-.5 1.6-1 2.8-1 2.9-.1 6.1-2.7 8.2-6.8 2.6-5.2.4-8-3.7-4.8zM972.6 760.7c-.4 1 .2 2.6 1.8 4.2 1.3 1.4 2.6 3.5 2.8 4.5.4 2.3 5.3 5.2 10.2 6.1 3.2.7 3.6.5 4.2-2.1.8-3-1.4-5.4-5-5.4-1.2 0-4.3-2-7.1-4.5-5.5-5-6-5.2-6.9-2.8zM1446 789c-1.9 1.1-4.9 1.9-6.7 2-3.9 0-4.9 1.3-2.7 3.4 1 1.1 3.3 1.6 6.7 1.6 4.3-.1 5.8-.6 8.6-3 6-5.1 1.6-8.1-5.9-4zM278 794.6c-.6 3-.9 7.6-.5 10.2.4 2.8-.1 8.9-1 14.9-2.4 14.9-2.5 47.5-.3 61.8 1 6 1.8 11.5 1.8 12.2 0 1.3 2.7 4.3 3.8 4.3.4 0 2-2.6 3.7-5.8 1.6-3.1 3.6-6.5 4.3-7.4 1.5-1.8.9-3.8-1.2-3.8-.8 0-1.9.7-2.6 1.5-.7.8-1.6 1.5-2 1.5-.4 0-1.3-8.8-2-19.6-1-15.3-1.1-21.6-.2-28.4.7-4.8 1.2-17.3 1.2-27.9 0-18.2-.1-19.1-1.9-19.1-1.6 0-2.2 1.1-3.1 5.6zM1086 790.4c0 .9.7 1.9 1.5 2.3 2.5.9 2.7-.2.5-2.2-1.8-1.7-2-1.7-2-.1zM1093.4 792.5c-.7 1.8.3 3.5 2.1 3.5.8 0 1.8.7 2.3 1.6 1.4 2.4 12.6 3 17.5.9 2.1-.9 3.7-2.1 3.4-2.8-.2-.7-3.1-1.5-6.5-1.9-3.3-.4-7-1.1-8.1-1.7-3-1.6-10.1-1.4-10.7.4zM1162.4 800.3c-1 2.7.5 3.7 5.7 3.7 5.3 0 6.5-1.5 2.4-3-5.5-2.1-7.5-2.3-8.1-.7zM1221 803.7c-2.4 1-5 4.7-4.7 6.8.6 5 10.6 1.6 10.7-3.6 0-3.3-2.4-4.6-6-3.2zM1255.8 804.8c-4.9 1.4-5.8 1.9-5.8 3.9 0 2.7.5 2.8 9.3.6 6.8-1.6 9.3-3.7 6.6-5.4-1.8-1.1-3.3-1-10.1.9zM305.1 808.7c-.7 2.7-1.7 11.1-2.1 18.8-.4 7.7-1.4 15.6-2 17.5-1.2 3.2-1.7 9.8-3.6 41.1-.7 10.8 1 17.3 4.3 16.7 1.6-.3 1.9-2.2 2.4-18.8.8-23.5 2.3-43.8 4.3-56.5 1.3-9 1.9-16.8 1.7-21.8-.1-.9-.9-1.7-1.9-1.7-1.4 0-2.2 1.3-3.1 4.7zM1397 804.7c-.8.3-2.9 1.2-4.7 2-1.7.8-3.7 1.4-4.5 1.2-3-.4-4.9.2-4.5 1.3.2.7 1.5 1.3 2.8 1.4 1.4 0 3 .4 3.7.8 1.9 1.2 10.4-.3 12.5-2.1 2.7-2.5 2.2-5.3-1-5.2-1.6 0-3.5.3-4.3.6zM1241.5 808c-.9 1.5.4 3 2.6 3 1.2 0 1.9-.7 1.9-2 0-2.1-3.3-2.9-4.5-1zM1346.4 813.5c-1 2.4.6 3.5 5.1 3.5 3.4 0 4.7-.5 5.5-1.9 1.5-3 1.4-3.1-4.5-3.1-3.9 0-5.7.4-6.1 1.5zM817.7 819.4c-.9 3.5-1.7 8.1-1.7 10.1 0 2.2-.8 4.7-2 6.2-1.5 1.9-2 4.1-2 8.2 0 5.5.1 5.7 3.3 6.9 5.5 2 12.9 1.5 16.8-1.1 3.3-2.2 3.3-2.3 3.4-10.2v-8l-6-.5c-5.9-.5-6-.6-6-3.5 0-2.4.5-3.1 2.4-3.3 1.3-.2 3.3.1 4.5.7 1.2.6 4.6 1.2 7.6 1.4l5.5.2v-8l-4.5-.3c-2.5-.1-5.4-.6-6.5-1.1-1.8-.7-5.3-1.9-11-3.5-1.8-.5-2.3.2-3.8 5.8zm11.8 21.9l2 1.1-2 .4c-1.1.2-2.5.9-3.2 1.4-.7.5-2.6.7-4.3.3-2.4-.5-3-1.2-3-3.2 0-2.4.2-2.4 4.3-1.8 2.3.4 5.1 1.2 6.2 1.8zM850.7 818.7c-1.2 1.1-.7 6.6.7 8.2 3 3.5 2.7 6.6-.9 10.1-2.6 2.5-3.5 4.2-3.5 6.6 0 3.3 1.7 5.5 2.9 3.7 1-1.6 6.5-4.1 7.8-3.6.7.3 2.2 2.4 3.2 4.9 1.1 2.4 2.6 4.4 3.4 4.4 3.3 0 6.1-6.2 3.8-8.5-.5-.6-1.3-2.7-1.6-4.7-.6-3.4-.5-3.9 1.9-4.9 2.1-1 2.6-1.9 2.6-4.6 0-4.2-1.9-5.1-5.9-2.7-2.5 1.5-3.2 1.5-4.5.5a5.2 5.2 0 01-1.6-3.5c0-5-1.1-6.6-4.4-6.6-1.8 0-3.6.3-3.9.7zM887.5 822.5c-2.1.9-3.4 1-4.6.2-.9-.5-2.4-.7-3.4-.3-1.5.5-1.7 1.9-1.4 12.5.3 8.1.8 12.3 1.8 13.4 1.9 2.4 2.7 2.1 5.1-1.8 1.7-2.8 2.8-3.5 5.3-3.5 1.8 0 4.9-1.1 6.9-2.5 3.8-2.6 4.8-2.1 4.8 2.7 0 1.1.8 2.2 2 2.5 1.1.3 2 .9 2 1.4 0 1.7 8.1.9 12.2-1.1 2.3-1.1 4.5-2 4.8-2 .4 0 1 2.3 1.3 5 .7 6.1 1.2 7 3.7 7 2.6 0 4.3-3.5 3.5-7.1-.4-1.8 0-5.1 1-8.3 3.1-9.9-.2-12.6-7-5.6-2.6 2.6-4.8 4-6.5 4-1.4 0-3.1.5-3.7 1.1-2.2 2.2-4.3.2-4.3-4 0-2.2.5-4.3 1-4.6 1.6-1 1.2-4.2-.6-4.9-3.1-1.2-4.4-.5-5.8 2.9-1.7 4-3.6 4.6-3.6 1.1 0-3.2-4.8-8.2-8.5-8.9-1.7-.3-4.3 0-6 .8zM893 833c0 1.1-.6 2-1.4 2-1.8 0-2.9-1.6-2.1-3 1.1-1.8 3.5-1.1 3.5 1zM943.9 835.7c-3.5 3.9-5.7 10.9-4.1 13.4.7 1 1.2 2.5 1.2 3.2 0 2 5.6 5.7 8.6 5.7 1.4 0 3.9-1 5.4-2.3 1.5-1.2 3.5-2.7 4.4-3.2 1-.6 1.5-1.6 1.1-2.6-.4-1.2-1.8-1.4-6.3-1.1-4.4.3-6.1 0-7.1-1.1-1.8-2.2-.6-4.9 2.9-6.9 3.1-1.8 3.9-4.5 1.8-6.6-2-2-5.3-1.4-7.9 1.5zM977.7 837c-1.3 1.8-1.7 1.9-4.2.8-2.4-1.1-2.9-1-4.1.7-.8 1-1.4 2.7-1.4 3.7 0 .9-.9 3.2-2 5-2 3.3-2.7 11.2-1.2 13.4 1.2 1.8 5.2 3.6 6.8 3 1-.4 1.4-2.5 1.4-8.2 0-5.4.5-8.4 1.7-10.5 1.8-2.9 3.7-3.7 4.8-1.9.3.5 2.2 1 4.1 1 3.9 0 4.3 1.3 1.4 5-1.5 1.9-2 4.1-2 9.7 0 8.3 1.2 9.2 6.3 4.8 2.5-2.3 2.7-2.9 2.7-11V844h3.9c4.5 0 7.1-2.2 5.4-4.8-1.2-2-6.2-3.2-15.4-3.9-6-.4-6.8-.2-8.2 1.7zM1222.7 847.2c-.6 2 .3 89.8 1 93.8.3 1.9.7 4.2.8 5 1.1 8.4 3 18 3.9 20.3 1.1 2.7 4.5 4.5 6.4 3.3 1.6-.9 2.2-6.7 1.4-12.6-.6-4.3-1.1-5.4-2.4-5.2-2.1.3-2.6-4.5-3.8-40.3-1.5-42.6-2.5-62.9-3.3-64.3-1-1.6-3.4-1.6-4 0zM541.3 856c-.3 1.1-.8 2-1.2 2-.4 0-1.3 2.2-2 5-2.1 8.4.7 18.5 6.9 24.1 2.5 2.3 4 2.9 7.8 2.9 5.3 0 6.4-.5 8.1-3.7 2.8-5.5-.4-14.3-5.2-14.3-1.2 0-3.7.9-5.5 2-1.8 1.1-3.5 2-3.7 2-.3 0-.5-2-.5-4.5 0-5 .9-5.5 5.6-3.1 3 1.6 3.9 1.4 5.4-1.3.7-1.4.2-2.8-2.1-5.9-4.7-6.4-12.5-9.4-13.6-5.2zM527.6 858.2c-1.2.7-1.6 2.4-1.6 7.4 0 4.8-.3 6.5-1.2 6.2-.7-.3-1.5-1.5-1.6-2.9-.2-1.3-1.8-4.3-3.5-6.6-2.6-3.7-3.5-4.3-6.8-4.3-5.6 0-7.1 3.1-7.3 14.7-.1 8.2-.3 9.3-1.8 9.3-1.6 0-1.8-1-1.8-8.3 0-9-1.3-12.2-4.6-11.5-1.7.3-1.9 1.4-2.2 13.6-.2 10.9 0 13.6 1.4 15.7.9 1.4 2.4 2.5 3.3 2.5 1.9 0 6.1-5.1 6.1-7.5 0-1.9 1.4-1.9 3 0 .7.8 2.1 1.5 3.1 1.5 2.3 0 5.1-5.1 3.8-7.1-.5-.8-.9-3.2-.8-5.4v-4l2.4 3c1.4 1.6 2.5 3.5 2.5 4.1 0 2 5.6 6.4 8.1 6.4 3.6 0 4.9-4.5 4.9-16.7 0-9-.2-10.1-1.9-10.6-1-.2-2.6 0-3.5.5zM355.1 861.6c-.6 1.5-1.6 6-2.1 10.1s-1.7 9.5-2.5 11.9c-1.6 4.7-2 12.1-.7 14 1 1.6 4.6 2.6 6.6 1.8 1-.4 1.6-1.8 1.7-3.8 0-1.7.8-5.4 1.7-8.1 1.4-4 2.2-5.1 4.2-5.3 1.4-.2 4.2-2 6.2-4 2.1-1.9 4-3.3 4.3-3 .3.3.8 4.7 1 9.9.6 11.2 1.7 12.9 6.4 10.5 3.5-1.8 4.1-4.9 1.5-7.7-1.1-1.3-1.7-4.5-2.1-11.6-.5-9.8-1-11.6-4.5-13.4-1.4-.8-2.6-.4-5.3 1.8-1.9 1.5-3.5 3.3-3.5 3.9 0 2.3-3 2.3-4.1.1-.7-1.2-1.5-2.4-1.8-2.7-.4-.3-1.1-1.8-1.6-3.5-1.3-3.9-3.8-4.3-5.4-.9zM430.5 862c-1.6 1.1-3.7 2.5-4.7 3.2-1.2.9-2.8.9-7.3-.2-4.4-1.1-7.5-1.1-14.1-.3-9.5 1.2-11.4 2.3-11.4 6.8 0 1.7-.3 3.5-.7 3.9-1.3 1.3-3.3 8.2-3.3 11.6.1 3.4 1.9 7 3.6 7 .5 0 2 .9 3.4 2 1.9 1.5 4.1 2 9.2 2 6.3 0 6.6-.1 7.6-2.8.6-1.7.6-3.5 0-4.8-.8-1.8-1.8-2-7.6-2-5.3.1-6.7-.2-7-1.5-.2-1.3.8-1.6 5.9-1.6 6.7 0 8.9-1.4 8.9-5.9 0-3.7-2.5-4.9-7.3-3.7-5.2 1.4-6.1.9-4.1-2.3 1.5-2.2 2.2-2.4 10-2.4 8.3 0 8.4 0 8.4 2.6 0 1.4-.9 4.5-2 7-1.6 3.3-2 6.1-1.8 10.7.3 5.9.4 6.2 2.9 6.5 3.7.4 5.9-2.2 5.9-6.9 0-3.8.5-4.3 4.1-4 .9.1 2.2-.5 2.9-1.4 2-2.5 3-.7 3 5.6 0 4.8.3 6.1 1.8 6.5.9.3 2.9 1.2 4.4 2 3.6 1.9 4.5 1.8 6.4-1.1 1.5-2.3 1.5-2.9 0-7.4-1.9-5.8-2-8.3-.5-9.8.6-.6.9-2.1.7-3.4-.2-1.7-1.1-2.5-3.2-2.9-2.2-.4-3.7-1.7-5.6-5-1.5-2.5-3-5.8-3.4-7.3-.8-3.2-1.2-3.3-5.1-.7zm.5 14c-2 1.3-3.3 1.3-2.5 0 .3-.6 1.4-1 2.3-1 1.5 0 1.5.2.2 1zM1246.5 863.1c-1.1 1.6-.7 87.3.4 90 .5 1.3 1.9 3.3 3.1 4.4 2.1 1.9 2.2 1.9 3.6 0 1.7-2.3 1.7-3 .4-7.5-.7-2.2-1.1-18.9-1-43.4 0-21.9-.3-40.9-.6-42.2-.7-2.5-4.7-3.4-5.9-1.3zM481.3 865.8c-1.4 1.1-2.5 3.8-3.3 7.7-.7 3.3-1.9 7.3-2.7 8.8-1.4 2.7-1.5 2.8-2.8 1-.8-1-1.5-2.7-1.5-3.8 0-1.1-.8-3.2-1.7-4.5-1-1.4-2.2-3.8-2.8-5.5-.9-2.6-1.5-3-5.3-3.3-3.8-.3-4.3 0-5.2 2.3-1.3 3.4-1.3 18.6 0 22 2.2 5.7 7.6 3.2 9-4.2.7-3.2.8-3.4.9-1 .2 4.2 5.1 8.7 9.4 8.7 2.9 0 3.8-.6 5.4-3.3 1.1-1.8 2.3-5.4 2.6-8.1.5-3.2 1.4-5.4 2.7-6.3 3.3-2.3 2.2-12.3-1.3-12.3-.7 0-2.2.8-3.4 1.8z" fill="#222020"/><path d="M260 873c0 1.6.9 4.5 2 6.5s2 4.8 2 6.2c0 2.4 1.1 6.7 3 11.8 3.7 9.5 5.8 18.6 6.9 29 .4 3.9 1.4 8.1 2.3 9.5.9 1.4 1.8 5.2 2.1 8.6.4 4.9 1 6.6 3.1 8.7 1.5 1.5 3.1 2.7 3.5 2.7 1 0 7.1-5.5 7.1-6.4 0-.4 1.8-2.9 4-5.7 2.2-2.8 4-5.6 4-6.2.1-.7 1.4-2.8 3-4.7 1.7-1.9 3-4.2 3-5.2 0-.9.9-2.2 2-2.8 1.1-.6 2-1.9 2-2.9s.9-3 2-4.4c1.1-1.4 2.3-3.9 2.6-5.6.4-1.6 1.5-3.8 2.5-4.7 1.1-.9 1.9-2.3 1.9-3 0-.7.9-2.9 2-4.9 1.1-2 2-4.5 2-5.5 0-1.1.9-2.8 2-3.7 1.3-1.2 2-3 2-5.5 0-3.6-.1-3.8-3.3-3.8-2.6 0-3.6.6-4.5 2.5-.7 1.4-1.2 3.5-1.2 4.5 0 1.1-.9 3.5-2 5.5s-2 4.3-2 5.3c-.1.9-1.6 4.4-3.5 7.7-1.8 3.3-4.7 8.7-6.5 12-5.1 9.9-7.4 13.7-10.2 16.8-1.6 1.6-2.8 3.4-2.8 4.1-.1 1.1-4.9 5.1-5.4 4.4-1.2-1.8-2.6-6.4-2.6-8.6 0-1.5-.9-5.2-2-8.2-1.1-3-2-7.1-2-9 0-2-.8-4.7-1.7-6-.9-1.3-2.1-4.5-2.5-7-1.6-9.9-2-11.6-2.8-13.5-.4-1.1-1.8-5.1-2.9-8.8-2.9-9.5-4.8-12.7-7.1-12.7-1.5 0-2 .7-2 3zM831.8 896.4c-4.7 5-5 5.7-5 14.4 0 5.9.4 8.8 1.2 9 .7.3 2.2 1.5 3.3 2.8 3.1 3.6 9.5 3.3 15.1-.6 2.4-1.6 4.6-3.6 5-4.5.8-2.1 2.6-1 2.6 1.6 0 1 .4 1.9.9 1.9s1.1.9 1.4 2c.4 1.7 1.4 2 6.4 2 5.2 0 6.1-.3 8.8-3.2 3.7-3.9 5.5-8.8 5.5-15.1 0-4.4-.2-4.9-3-5.8-1.6-.6-3-1.5-3-2s-.7-.9-1.5-.9c-1.9 0-9.5 4.7-9.5 5.9 0 .5-1.3 1.4-2.9 1.9-2.2.8-3 1.8-3.3 3.9-.2 2.3-.7 2.7-2.6 2.5-1.2-.2-3.5.6-5.1 1.7-4.1 2.9-9.7 2.8-10.5-.2-1.3-4.8-.7-6.6 2.2-6.9 2.4-.3 2.7-.8 3-4.5.2-3.3-.1-4.4-2-5.7-2.8-2-5.2-2-7-.2zm38.2 12.8c-.1 2.8-3.3 6.8-5.4 6.8-2.3 0-1.8-2.3 1.7-7.8 1.4-2 3.7-1.4 3.7 1zM883 902.5c0 1.4-.9 3.8-1.9 5.3-2.9 4-3.2 13.6-.5 14.6 1.9.7 5.4-2 5.4-4.1 0-2.1 2.7-1.5 3.3.7.7 2.7 4.3 2.6 7-.3 5.6-5.9 10.7-12 10.7-12.7 0-1.7-1.2-4-2.1-4-.5 0-3.2 1.8-6 4-5.6 4.4-6.9 4.8-6.9 2.3s-4.9-8.3-7.1-8.3c-1.4 0-1.9.7-1.9 2.5zM910.6 902.2c-.9 2.8-1.6 14.1-1 16.3.7 2.8 1.5 3.2 9.3 4.1l6 .6 2-3.3c2.6-4.3 2.6-8.5.1-14.3l-1.9-4.6H918c-4.8 0-7.2.4-7.4 1.2zm9.4 10.3c0 2.4-.5 3.5-1.5 3.5s-1.5-1.1-1.5-3.5.5-3.5 1.5-3.5 1.5 1.1 1.5 3.5zM945.7 901.6c-.4.4-.7 2-.7 3.5 0 2.8 1.5 3.9 5.2 3.9 1.9 0 2 .4 1.4 4.2-1.7 10.9-1.9 15.8-.6 17.3 1.7 2 2.6 1.9 5-.5 1.7-1.7 2-2.9 1.5-6.8-.8-5.9 1.5-11.9 5-13.2 2.7-1 3.3-4.1 1.3-5.8-2.3-1.8-16.8-3.9-18.1-2.6zM969.2 905.2c-.7.7-1.2 2.4-1.2 3.8s-.4 3-.8 3.5c-1.4 1.7-3.2 9-3.2 13.4 0 4.8 2.9 8.4 6.3 7.9 2.1-.3 2.2-.9 2.8-12.8.7-15.1-.4-19.3-3.9-15.8zM936.8 906.1c-1.4.8-1.8 2.4-1.8 7.4 0 3.5-.4 6.7-1 7-1.6 1-1.2 10.1.5 11.5 1.1.9 2 .8 4.5-1 2.5-1.7 3-2.8 3-6 0-2.1.4-4.1.9-4.4 2.1-1.3 2.2-7.5.1-11.6s-3.2-4.7-6.2-2.9zM1348.5 907c-.3.5-2.5 1-4.9 1-5.5 0-5.8.5-8.7 15.5a746 746 0 00-1.8 10.5c-.5 3.1-1.6 7-2.5 8.7-.9 1.8-1.6 4.6-1.6 6.3 0 2.8.3 3 3.5 3 2.9 0 3.5-.4 3.5-2 0-1.2.9-4 2-6.2 1.1-2.3 2-4.7 2-5.2 0-.7 3.1-1.1 8.2-1.1 4.6 0 9.5-.4 10.9-.8 2.1-.7 2.7-.4 3.7 1.8.7 1.4 1.5 4.5 1.8 6.8.9 5.6 3 8.9 5.6 8.5 3.5-.5 4.6-3.4 2.6-6.9-1-1.7-1.8-3.9-1.8-5 0-1-.9-3.3-2-5.1-1.1-1.8-2-4.5-2-6s-.4-3-1-3.3c-.5-.3-1-2.1-1-3.8 0-1.8-.9-4.3-2-5.7-1.1-1.4-2-3.1-2-3.8 0-.7-1.2-2.9-2.7-4.8-2.2-2.6-3.6-3.4-6-3.4-1.7 0-3.5.4-3.8 1zm7.5 12.8c0 .8.9 2.7 2.1 4.3 2.2 3.1 1.8 4.9-1.1 4.9-1 0-4.6.7-8 1.6-3.4.8-6.4 1.3-6.7 1-1.1-1.1 2-9.7 3.8-10.7 1.1-.5 1.9-1.6 1.9-2.4 0-.7.7-2.1 1.6-3 1.5-1.5 1.8-1.4 4 .6 1.3 1.2 2.4 2.9 2.4 3.7zM987 910c-.6 1.1-1.7 2-2.4 2-1.6 0-4.6 4.3-4.6 6.6 0 .9.6 3 1.4 4.7.8 1.8 1.6 4 1.8 5 .2 1 1.5 2.5 2.9 3.4 2.5 1.5 2.8 1.5 6.3-1.3 2-1.6 3.6-3.4 3.6-4 0-.5.9-2 2-3.2 1.7-1.8 2-3.3 1.8-8.5l-.3-6.2-5.7-.3c-4.9-.3-5.8 0-6.8 1.8zm6 5.7c-.1.5-.7 1.9-1.5 3.3l-1.4 2.5-.1-2.6c0-1.4.3-2.9.7-3.2.9-.9 2.3-.9 2.3 0zM1008 909.5c0 .8-1.8 4.3-4 7.7-3.2 5.1-4 7.2-4 11 0 4.6.1 4.8 2.9 4.8 1.6 0 3.4-.7 4.1-1.5.7-.8 1.6-1.5 2.1-1.5s.9.7.9 1.5.8 1.5 1.8 1.5c2.2-.1 11.2-8.2 11.2-10.2 0-.9.9-1.8 2-2.1 2.2-.6 2.8-5.1.9-6.2-1.4-.9-7.5 2.1-8.3 4-1.1 2.8-2.6 1.5-2.6-2.3 0-2.9-.6-4.4-2.5-6-2.9-2.6-4.5-2.8-4.5-.7zM1036.9 910.6c-2.3 2.4-2.4 3.1-2.2 14.1.2 11 .1 11.5-1.6 9.9-2.2-2-8.1-2.2-8.1-.2 0 1.8 6.4 6.8 11 8.6 1.9.7 4 1.7 4.7 2.2 2.2 1.7 5.3-1.4 5.3-5.3 0-1.9-.3-3.9-.7-4.3-1.3-1.3-3.3-8.2-3.3-11.7 0-2.2.8-4.3 2-5.7 2.2-2.4 2.6-7.2.8-9-2-2-5.3-1.4-7.9 1.4zM1394.9 912c-2.3 2.4-4.6 4-5.4 3.7-2.9-1.2-3.4 8.2-.9 17.8.9 3.3 1.8 7.7 2.1 9.7.6 4.4 2.4 6.2 5.3 5.3 1.8-.6 2-1.4 2-10.1V929h8.3c8 0 8.4-.1 9.5-2.5 1.5-3.2 1.5-6.5.2-6.5-.5 0-1-.7-1-1.5 0-.9-.8-1.9-1.7-2.2-1-.4-2.4-1.5-3.1-2.5-.7-1-1.9-1.8-2.5-1.8-.7 0-3-.9-5.1-2.1l-3.8-2zm8.3 6.2c6.4 3.7 6.3 5.8-.2 5.8h-5v-3.5c0-3.8 1.4-4.4 5.2-2.3zM1436.8 912.2c-.8.7-2.1 2.7-2.9 4.5-.7 1.7-2.1 3.4-3.1 3.6-1 .3-1.8 1.4-1.8 2.5 0 1.2-.4 2.4-1 2.7-1.4.8-1.3 16.8.1 19.9.7 1.4 1.9 2.8 2.7 3.1 2 .8 5.2-2.3 5.2-5.1 0-3.4 1-5.4 2.9-5.4 4.4 0 16.1-11.3 16.1-15.5 0-1.7-8.6-9.9-11.2-10.7-3.6-1-5.3-.9-7 .4zm7.2 8.8c2.3 0 1.4 3.3-2.1 7.1l-3.9 4.3v-5.6c0-5.6.9-7.1 3.8-6.2.8.2 1.7.4 2.2.4zM1604.8 911.7c-1.6.2-2.8.8-2.8 1.3s-1.8 2.8-4.1 5l-4.1 4.1.6 7.2c.3 4 .9 9.7 1.3 12.7.8 5.1 1 5.5 3.8 5.8 1.6.2 4.1 1.2 5.6 2.3 3.1 2.2 6.9 2.5 8.7.7 2-2 1.5-12.9-.8-15.8-2.5-3.2-2.5-5.6 0-10.5 2-3.9 2.7-11 1.3-11.8-1.5-.9-6.8-1.4-9.5-1zm1.2 9.1c0 1.1-.9 2.7-2 3.7-2.9 2.6-2.5 5.8 1.3 11.3 5.2 7.4 5.2 7.2 1.2 7-2.2-.1-3.5-.6-3.5-1.5 0-.7-.9-4.1-2-7.4-2.2-6.5-2.1-8.3 1.1-12.3 2.4-3.1 3.9-3.3 3.9-.8zM1462.5 913.2c-1.9 6.2-3.1 29.4-1.5 31.3 1.4 1.7 15.5 2.2 16.5.5.3-.6 2.2-1 4.1-1 4.2 0 8.4-2.5 8.4-5.1 0-1.6-.8-1.9-4.9-1.9-2.8 0-5.2.4-5.5.9-.3.4-2.7 1.1-5.2 1.5-6.2.8-9.9-1.3-9-5.2.9-4.1 3.6-19.5 3.6-21 0-.7-1.3-1.2-3-1.2s-3.2.6-3.5 1.2zM1631.8 915.7c-2.2 1.1-2.8 2.1-2.8 4.8 0 1.9-.7 6-1.5 9.2-1.9 7.1-1.9 15.7-.2 17.5.7.7 1.6 2 1.9 2.9.6 1.5 6.5 2.9 12.4 2.9 1.3 0 4.6 1.3 7.2 3 6.6 4 14.6 4.3 18.6.5 3.3-3 3.3-6.5.1-9.5-2.9-2.7-3.1-5.1-.8-9 1.6-2.7 1.6-3.1-.1-6.8-2.5-5.4-1.8-7.2 3.2-9.1 4.3-1.7 6.5-3.8 5.6-5.3-1.1-1.8-11.5-.8-15.4 1.4-4.4 2.6-6 5.3-6 10.3 0 2.2-.8 4.3-2 5.5-1.1 1.1-2 3.2-2 4.7-.1 6.2-7 9.2-12.9 5.7-3.1-1.8-3.1-1.9-3.1-10.5 0-4.9.6-10.4 1.4-12.7 1.1-3.1 1.2-4.4.3-5.5-1-1.2-1.6-1.2-3.9 0zm29.7 16.3c.7 2.3-1 5-3.1 5-1.7 0-1.8-2.4-.4-5.1 1.4-2.5 2.7-2.4 3.5.1zm-1.5 13.5c0 .7.8 1.8 1.8 2.4 2.5 1.4.2 3.3-3.4 2.9-2.5-.2-2.9-.8-3.2-3.6-.3-2.9-.1-3.2 2.2-3.2 1.6 0 2.6.6 2.6 1.5zM1523.7 921.2c-4.2 8.8-4.6 21.1-.8 22.6.9.3 2.5 1.4 3.5 2.4 2.2 2 5.1 2.4 6.1.8.3-.6 1.9-1 3.5-1s3.2-.5 3.5-1c.3-.6 1.4-1 2.4-1 2.4 0 5.5-3.5 4.8-5.5-.7-1.7-5.2-2.1-6.2-.5-.9 1.4-8.3 3.2-10.4 2.5-2-.6-4.1-4.5-4.1-7.7 0-3.4 2.2-9.8 3.4-9.8.6 0 2 1.1 3 2.5 2.1 2.8 5.1 3.3 6 .9.7-1.8.3-2.5-3.3-7.1-2-2.5-3.4-3.3-5.8-3.3-2.8 0-3.4.5-5.6 5.2zM1562.5 917.9c-.3 1.2-1.7 2.1-3.3 2.3-2.2.2-2.8.9-3.2 3.8-.3 1.9-1.2 4.6-2.2 6-1.4 2.2-2.3 8.8-1.9 14.2 0 1.1.9 1.8 2.1 1.8 2.2 0 5-4.6 5-8.3 0-1.3.9-3.2 1.9-4.1 1.1-1 2.1-3 2.3-4.4.4-3.7 3-3.8 5.1-.3 1.7 2.8 1.6 2.9-.8 4.5-1.3.9-2.9 1.6-3.4 1.6-.6 0-1.3 1.1-1.7 2.5-.5 1.9 0 3.2 1.7 4.9 1.3 1.3 3.5 4 4.9 5.9 3 4.2 6.8 5.6 8.6 3.2 1.5-2 1.2-16.1-.4-19-.6-1.1-1.6-4.1-2.3-6.8-.6-2.6-1.7-5.1-2.4-5.5-.6-.4-1.4-1.5-1.8-2.5-.9-2.5-7.4-2.4-8.2.2zM1498.6 920.8c-.3.5-1 3.7-1.7 7.3-1 5.7-1 6.8.7 10.4 2.2 4.6 6.7 7.6 8.5 5.8 1.3-1.3 1-2.2-2.2-8.5-1.2-2.4-1.1-7.1.1-10.4.7-1.9.7-3-.1-4-1.3-1.5-4.5-1.9-5.3-.6zM1191.7 927.6c-1.3 1.3-.7 4.1 1.3 6.7 1.1 1.4 2 3.3 2 4.4 0 1 1.2 3.6 2.5 5.8 1.4 2.2 2.5 4.6 2.5 5.3 0 .7.8 2.5 1.7 3.9 2.2 3.3 4.3 9.1 4.3 11.8 0 1.1.9 2.8 2 3.8 1.1.9 2 2.5 2 3.5s.4 2.2.9 2.8c.5.5 1.8 3.9 3 7.6 1.1 3.6 2.4 7.5 3 8.5 1.7 3.2 5.1 14.8 5.7 19.8.4 2.6 1.5 5.6 2.6 6.7 1 1 1.8 2.4 1.8 3 0 .7.9 2.4 1.8 3.6 2.5 3.2 7.4 2.8 8.4-.8.3-1.4 1.2-4.5 1.9-7s1.6-4.9 2.1-5.5c.4-.5.8-1.7.8-2.7 0-1.9 1.9-6.5 8-19.4 2.2-4.5 4.2-9.3 4.5-10.7.4-1.4 1.5-3.3 2.6-4.3 1-.9 1.9-2.7 1.9-3.8 0-1.2.9-3.2 2-4.6 1.1-1.4 2-3.2 2-4 0-.9.4-2 .9-2.5 1.5-1.6 5.1-8.5 5.1-9.8 0-.7 1.4-2.5 3-4.1 2.4-2.2 2.8-3.1 1.9-4.2-.6-.8-1.9-1.4-2.9-1.4-2 0-9 7.5-9 9.6 0 .8-.9 2.4-2 3.6-1.1 1.2-2 3-2 4s-.9 2.7-2 3.8c-1.1 1.1-2 2.8-2 3.9 0 2.1-1.2 4.4-5.3 10.8-1.5 2.4-2.7 4.8-2.7 5.5 0 .7-1.1 3.1-2.5 5.3-1.3 2.2-2.5 4.7-2.5 5.6 0 .9-.8 3.1-1.7 5-2.8 5.4-4.3 10.1-4.3 13.5 0 2-.6 3.4-1.6 3.8-1.7.7-3.7-3.3-5.4-11.1-.6-2.6-2-6.7-3-9-1.1-2.4-2-5.1-2-6.2 0-1-.9-3-2-4.4-1.1-1.4-2-3.8-2-5.4 0-1.5-.9-3.9-2-5.3s-2-3.3-2-4.2c0-1.5-4.2-10.9-13.2-29.5-1.7-3.4-3.6-6.4-4.3-6.7-.8-.3-1.5-1.5-1.7-2.8-.3-2.2-2.7-3.5-4.1-2.2zM887.2 965.8c-1.6 1.3-2.3 2.6-2 4.3.3 2.3.7 2.4 8.1 2.7 5.9.2 7.9.7 8.4 1.8 1 2.8-1.1 3.5-5.1 1.9-2.1-.9-5.4-1.5-7.4-1.3-3.6.3-3.7.4-3.7 4.3v4l4.8.7c2.7.3 6.1 1.1 7.6 1.6 2.2.8 3.2.5 5.4-1.2 2.5-2 2.8-3.1 3.3-9.3.5-7 .4-7.2-2.5-9.2-3.8-2.8-13.5-2.9-16.9-.3zM854.5 1010.3c-5.3 2.9-5.5 3.2-5.5 10 0 3.2-.5 7.7-1 10-1.3 5.1.3 12.3 4 17.9 2.5 3.8 4.3 4.7 5.5 2.8.3-.6 2.4-1 4.6-1 2.2 0 5.1-.7 6.4-1.6 2.1-1.4 2.5-2.4 2.5-6.5 0-3.5-.5-5.1-1.8-6.1-1-.7-2.1-2-2.5-2.8-.4-.8-1.3-2.3-1.9-3.3-1.1-1.4-1-2.3.5-4.8 1.1-1.9 1.7-5.2 1.7-8.8 0-5.5-.1-5.7-3.3-6.9-4.3-1.6-4.5-1.5-9.2 1.1zm3.5 10.1c0 1.4-2.4 2.9-3.3 1.9-.3-.3-.3-1.1 0-1.9.7-1.8 3.3-1.8 3.3 0zm1.1 14.5c3.5 3.6 3.8 6.1.7 6.1-2.4 0-4.8-3.7-4.8-7.2 0-2.5.7-2.3 4.1 1.1zM883.3 1015.7c-.4 1-1.3 2.3-2 2.8-1.7 1.3-3.9 13.2-3 16.5 1.2 4.8 4.3 7 10 7 4.7 0 5.5-.4 9.4-4.2 4-3.9 4.3-4.6 4.3-9.6 0-6.7-1-8.5-6.4-11.7-5.1-3-11.3-3.4-12.3-.8zm10.1 8.5c2.1 3 2 4.4-.5 7.9-1.3 1.8-2.9 2.9-4.5 2.9-2.3 0-2.4-.3-2.4-6.5v-6.5h2.9c2 0 3.5.8 4.5 2.2zM942.3 1015.2c-.4.7-1.8 3.8-3 6.8-3.9 9.5-2.5 17.8 2.6 15.1 2.6-1.4 3.1-1.4 3.1.4 0 .8 1.1 2.2 2.4 3 2 1.3 2.9 1.4 4.8.4 3.5-1.8 7.7-6 9.5-9.7.9-1.8 2.9-4.7 4.5-6.3 2.4-2.3 2.9-3.6 2.6-6.6-.3-3.3-.7-3.8-3.1-4.1-3.3-.4-5.7 1.3-5.7 3.9 0 1.1-.9 2.7-2 3.6-1.1 1-2 2.5-2 3.3 0 1.8-3.5 6-5 6-.6 0-1-.9-1-1.9 0-1.1-.4-2.3-1-2.6-.5-.3-1-2.4-1-4.6 0-2.1-.4-3.9-.9-3.9s-1.1-.9-1.4-2c-.6-2.3-2.2-2.6-3.4-.8zM972.1 1016c-.4.8-.9 3.2-1 5.2-.1 2-.8 4.9-1.6 6.5-2.9 5.5-1.4 14.2 3.3 20.2 1.7 2.1 2.5 2.3 6.2 1.7 5.8-.9 13-4.3 13-6.1 0-.8.4-1.5 1-1.5.5 0 1.6-1.4 2.5-3 1.8-3.5 3.1-3.8 4-1 .3 1 2.2 2.5 4.1 3.2 3.1 1.1 3.4 1.5 3.4 5.3 0 2.3.6 4.9 1.3 5.9 1.2 1.6 1.5 1.5 4-2.1 3.5-5.1 3.6-11 .2-20-2.8-7.5-3.6-8.3-8.1-8.3-2.1 0-4 1-6.4 3.5-4.2 4.3-6 4.5-6 .6 0-2.1-.6-3.2-2-3.6-1.1-.3-2-1.4-2-2.4 0-.9-1.3-2.7-2.9-3.9-3.6-2.6-11.8-2.8-13-.2zm12.4 16c.8 4.7-1.7 9.1-5 8.7-1.7-.2-2-1.1-2.3-6-.2-4.3.2-6.6 1.4-8.5l1.7-2.6 1.8 2.2c.9 1.2 2 4 2.4 6.2zm20.9 1.5c.4 1.1-.2 1.5-2.6 1.5-2.6 0-2.9-.2-1.8-1.5.7-.8 1.8-1.5 2.5-1.5s1.5.7 1.9 1.5zM924.8 1017c-.1 1.1-.2 3.3-.3 4.9-.2 3.2-4 9.1-5.8 9.1-2.8-.1-5.4-4.3-5.9-9.5-.7-7-6.8-1.5-6.8 6.1 0 2.6 1 4.3 4.7 8 4.4 4.3 5 4.6 9 4.1 6.4-.7 10.3-6.4 12.2-18 .7-4.1.5-4.9-1-5.7-3-1.7-5.9-1.2-6.1 1zM1030.8 1020c-.7 1.1-1.8 2-2.4 2-1.8 0-5.2 4.3-6 7.5-.3 1.6-1.5 4.5-2.6 6.2-1.2 2-1.8 4.6-1.6 6.5.3 3 .6 3.3 4.1 3.6 3.2.3 3.9 0 4.4-1.7.7-2.6 3-2.7 5.2-.3 5.7 6.3 12.5 8 14.2 3.6 1.3-3.5.3-6.4-2.3-6.4-1.1 0-3.1-1.1-4.3-2.4l-2.2-2.4 2.8-.6c2.1-.4 3.3-1.5 4.4-4.2 2-4.9 1.9-7-.6-10.5-1.8-2.5-2.7-2.9-7-2.9-3.8 0-5.2.4-6.1 2zm5.2 8c0 .5-.7 1-1.6 1-.8 0-1.2-.5-.9-1 .3-.6 1-1 1.6-1 .5 0 .9.4.9 1zM1050 1020.6c-2.8 7.3-.4 14.5 5.5 16 2.1.5 2.5 1.2 2.5 4.5 0 4 4.3 11.8 6.6 11.9 3 .1 5.6-6.3 3.5-8.5-.5-.6-1.1-3.3-1.5-6.1-.5-4.3-.3-5.5 1.5-7.7 2.8-3.7 2.2-6.1-1.9-6.5-2.2-.2-3.4.2-3.8 1.2-.3.9-1.7 1.6-3 1.6-2 0-2.4-.5-2.4-2.8 0-2.9-2.6-6.2-4.9-6.2-.6 0-1.6 1.2-2.1 2.6z" fill="#222020"/></svg>